<svg width="24" height="24" viewBox="0 0 24 24" fill="none" xmlns="http://www.w3.org/2000/svg">
<path fill-rule="evenodd" clip-rule="evenodd" d="M10.0097 7.35689L12.9948 4.37182C14.8236 2.54249 17.7993 2.54296 19.6282 4.37182C21.457 6.20067 21.457 9.17637 19.6282 11.0052L16.6431 13.9903C16.5005 14.1329 16.349 14.2605 16.1938 14.3806C16.3499 13.5513 16.3199 12.6957 16.1023 11.8777L18.3017 9.67826C19.3993 8.58113 19.3993 6.7959 18.3017 5.69831C17.2046 4.60072 15.4193 4.60072 14.3217 5.69831L11.3367 8.68339C10.2391 9.78051 10.2391 11.5657 11.3367 12.6633C11.6833 13.01 12.0984 13.2464 12.5384 13.374C12.529 13.8383 12.354 14.2994 11.9999 14.6535L11.6153 15.0382C11.0304 14.8097 10.4816 14.4622 10.0097 13.9903C8.18085 12.1614 8.18085 9.18575 10.0097 7.35689ZM11.4558 10.6248C11.468 10.1604 11.6467 9.69983 11.9999 9.34663L12.3845 8.96201C12.9695 9.19044 13.5182 9.53801 13.9901 10.0099C15.819 11.8387 15.819 14.8144 13.9901 16.6433L11.005 19.6284C9.17619 21.4572 6.20049 21.4572 4.37164 19.6284C2.54279 17.7995 2.54279 14.8238 4.37164 12.995L7.35672 10.0099C7.49743 9.86916 7.64706 9.74346 7.79998 9.62431C7.64378 10.4527 7.67849 11.3078 7.8952 12.1249L5.69813 14.3219C4.60054 15.419 4.60054 17.2043 5.69813 18.3019C6.79526 19.3995 8.58049 19.3995 9.67808 18.3019L12.6632 15.3168C13.7608 14.2197 13.7608 12.4344 12.6632 11.3368C12.3151 10.9888 11.8981 10.7519 11.4558 10.6248Z" fill="#3F85FB"/>
<path d="M12.9948 4.37182L13.1008 4.47788L13.1009 4.47787L12.9948 4.37182ZM10.0097 7.35689L10.1158 7.46296L10.0097 7.35689ZM19.6282 4.37182L19.7343 4.26575V4.26575L19.6282 4.37182ZM19.6282 11.0052L19.7343 11.1113L19.6282 11.0052ZM16.6431 13.9903L16.537 13.8842L16.6431 13.9903ZM16.1938 14.3806L16.0463 14.3528L15.9733 14.7407L16.2855 14.4992L16.1938 14.3806ZM16.1023 11.8777L15.9962 11.7716L15.9351 11.8327L15.9573 11.9162L16.1023 11.8777ZM18.3017 9.67826L18.1956 9.57217L18.1956 9.57219L18.3017 9.67826ZM18.3017 5.69831L18.1956 5.80435L18.1956 5.80437L18.3017 5.69831ZM14.3217 5.69831L14.2157 5.59224L14.3217 5.69831ZM11.3367 8.68339L11.4427 8.78948L11.4427 8.78945L11.3367 8.68339ZM11.3367 12.6633L11.4427 12.5573L11.3367 12.6633ZM12.5384 13.374L12.6884 13.377L12.6907 13.2619L12.5802 13.2299L12.5384 13.374ZM11.9999 14.6535L12.106 14.7596L11.9999 14.6535ZM11.6153 15.0382L11.5607 15.1779L11.652 15.2136L11.7214 15.1442L11.6153 15.0382ZM10.0097 13.9903L10.1158 13.8842L10.0097 13.9903ZM11.9999 9.34663L12.106 9.4527V9.4527L11.9999 9.34663ZM11.4558 10.6248L11.3059 10.6209L11.3028 10.7369L11.4144 10.769L11.4558 10.6248ZM12.3845 8.96201L12.4391 8.82228L12.3478 8.78662L12.2785 8.85594L12.3845 8.96201ZM13.9901 10.0099L14.0962 9.90381L13.9901 10.0099ZM11.005 19.6284L10.899 19.5223H10.899L11.005 19.6284ZM4.37164 19.6284L4.47771 19.5223L4.37164 19.6284ZM4.37164 12.995L4.47771 13.101L4.37164 12.995ZM7.35672 10.0099L7.25065 9.90381L7.35672 10.0099ZM7.79998 9.62431L7.94738 9.65211L8.02094 9.262L7.70778 9.50599L7.79998 9.62431ZM7.8952 12.1249L8.00126 12.2309L8.06232 12.1699L8.04018 12.0864L7.8952 12.1249ZM5.69813 14.3219L5.80418 14.428L5.8042 14.428L5.69813 14.3219ZM5.69813 18.3019L5.80422 18.1958L5.8042 18.1958L5.69813 18.3019ZM9.67808 18.3019L9.78415 18.4079L9.67808 18.3019ZM12.6632 15.3168L12.5571 15.2107L12.5571 15.2107L12.6632 15.3168ZM12.6632 11.3368L12.7692 11.2308L12.6632 11.3368ZM12.8887 4.26575L9.90364 7.25083L10.1158 7.46296L13.1008 4.47788L12.8887 4.26575ZM19.7343 4.26575C17.8468 2.37834 14.7762 2.37783 12.8887 4.26576L13.1009 4.47787C14.8711 2.70716 17.7518 2.70759 19.5221 4.47788L19.7343 4.26575ZM19.7343 11.1113C21.6217 9.22385 21.6217 6.15318 19.7343 4.26575L19.5221 4.47788C21.2924 6.24816 21.2924 9.12888 19.5221 10.8992L19.7343 11.1113ZM16.7492 14.0964L19.7343 11.1113L19.5221 10.8992L16.537 13.8842L16.7492 14.0964ZM16.2855 14.4992C16.444 14.3766 16.6007 14.2448 16.7492 14.0964L16.537 13.8842C16.4003 14.021 16.254 14.1443 16.102 14.2619L16.2855 14.4992ZM15.9573 11.9162C16.1692 12.7125 16.1984 13.5454 16.0463 14.3528L16.3412 14.4083C16.5015 13.5572 16.4707 12.6789 16.2472 11.8391L15.9573 11.9162ZM18.1956 9.57219L15.9962 11.7716L16.2083 11.9837L18.4078 9.78432L18.1956 9.57219ZM18.1956 5.80437C19.2347 6.8434 19.2346 8.53364 18.1956 9.57217L18.4077 9.78435C19.5639 8.62862 19.5639 6.7484 18.4078 5.59224L18.1956 5.80437ZM14.4278 5.80437C15.4668 4.76535 17.1571 4.76538 18.1956 5.80435L18.4078 5.59227C17.2521 4.43605 15.3718 4.43608 14.2157 5.59224L14.4278 5.80437ZM11.4427 8.78945L14.4278 5.80437L14.2157 5.59224L11.2306 8.57732L11.4427 8.78945ZM11.4427 12.5573C10.4037 11.5182 10.4037 9.828 11.4427 8.78948L11.2306 8.5773C10.0744 9.73302 10.0744 11.6132 11.2306 12.7694L11.4427 12.5573ZM12.5802 13.2299C12.1637 13.1091 11.7709 12.8854 11.4427 12.5573L11.2306 12.7694C11.5957 13.1345 12.0331 13.3836 12.4966 13.518L12.5802 13.2299ZM12.106 14.7596C12.4896 14.376 12.6783 13.877 12.6884 13.377L12.3884 13.3709C12.3798 13.7996 12.2185 14.2228 11.8938 14.5475L12.106 14.7596ZM11.7214 15.1442L12.106 14.7596L11.8938 14.5475L11.5092 14.9321L11.7214 15.1442ZM9.90364 14.0964C10.3908 14.5835 10.9573 14.9422 11.5607 15.1779L11.6699 14.8984C11.1035 14.6772 10.5724 14.3409 10.1158 13.8842L9.90364 14.0964ZM9.90364 7.25083C8.01621 9.13826 8.01621 12.2089 9.90364 14.0964L10.1158 13.8842C8.3455 12.114 8.3455 9.23323 10.1158 7.46296L9.90364 7.25083ZM11.8938 9.24057C11.5117 9.62271 11.319 10.1207 11.3059 10.6209L11.6058 10.6288C11.617 10.2002 11.7817 9.77695 12.106 9.4527L11.8938 9.24057ZM12.2785 8.85594L11.8938 9.24057L12.106 9.4527L12.4906 9.06807L12.2785 8.85594ZM14.0962 9.90381C13.6091 9.4167 13.0425 9.05795 12.4391 8.82228L12.33 9.10173C12.8964 9.32293 13.4274 9.65932 13.8841 10.1159L14.0962 9.90381ZM14.0962 16.7493C15.9836 14.8619 15.9836 11.7912 14.0962 9.90381L13.8841 10.1159C15.6543 11.8862 15.6543 14.7669 13.8841 16.5372L14.0962 16.7493ZM11.1111 19.7344L14.0962 16.7493L13.8841 16.5372L10.899 19.5223L11.1111 19.7344ZM4.26557 19.7344C6.15301 21.6219 9.22368 21.6219 11.1111 19.7344L10.899 19.5223C9.1287 21.2926 6.24798 21.2926 4.47771 19.5223L4.26557 19.7344ZM4.26557 12.8889C2.37814 14.7763 2.37814 17.847 4.26557 19.7344L4.47771 19.5223C2.70743 17.752 2.70743 14.8713 4.47771 13.101L4.26557 12.8889ZM7.25065 9.90381L4.26557 12.8889L4.47771 13.101L7.46278 10.1159L7.25065 9.90381ZM7.70778 9.50599C7.55209 9.6273 7.39728 9.75719 7.25065 9.90381L7.46278 10.1159C7.59759 9.98114 7.74204 9.85961 7.89217 9.74264L7.70778 9.50599ZM8.04018 12.0864C7.82909 11.2905 7.79541 10.458 7.94738 9.65211L7.65257 9.59652C7.49215 10.4473 7.52789 11.325 7.75021 12.1633L8.04018 12.0864ZM5.8042 14.428L8.00126 12.2309L7.78913 12.0188L5.59207 14.2159L5.8042 14.428ZM5.8042 18.1958C4.76517 17.1568 4.7652 15.4665 5.80418 14.428L5.59209 14.2158C4.43587 15.3716 4.43591 17.2518 5.59207 18.4079L5.8042 18.1958ZM9.57201 18.1958C8.53299 19.2348 6.84275 19.2348 5.80422 18.1958L5.59204 18.4079C6.74776 19.5641 8.62799 19.5641 9.78415 18.4079L9.57201 18.1958ZM12.5571 15.2107L9.57201 18.1958L9.78415 18.4079L12.7692 15.4229L12.5571 15.2107ZM12.5571 11.4429C13.5961 12.4819 13.5961 14.1722 12.5571 15.2107L12.7692 15.4229C13.9254 14.2672 13.9254 12.3869 12.7692 11.2308L12.5571 11.4429ZM11.4144 10.769C11.8331 10.8893 12.2276 11.1134 12.5571 11.4429L12.7692 11.2308C12.4026 10.8642 11.9632 10.6146 11.4972 10.4806L11.4144 10.769Z" fill="#1C84FF"/>
</svg>
