<svg width="23" height="28" viewBox="0 0 23 28" fill="none" xmlns="http://www.w3.org/2000/svg">
<mask id="mask0_0_1225" style="mask-type:alpha" maskUnits="userSpaceOnUse" x="0" y="0" width="23" height="28">
<path fill-rule="evenodd" clip-rule="evenodd" d="M0 0H22.7508V28H0V0Z" fill="white"/>
</mask>
<g mask="url(#mask0_0_1225)">
<path fill-rule="evenodd" clip-rule="evenodd" d="M17.4877 1.74963H17.182C12.3986 1.74963 7.61523 1.74963 2.83184 1.74963C2.74084 1.74963 2.64841 1.74465 2.55812 1.75532C2.19126 1.79798 1.93033 1.9878 1.80449 2.33902C1.58765 2.94548 2.032 3.49861 2.73799 3.49861C7.57613 3.50003 12.415 3.50003 17.2531 3.49932C17.3313 3.49861 17.4095 3.48866 17.4877 3.48368V1.74963ZM14.8749 10.513C14.882 8.59127 13.3179 7.01221 11.3954 7.00084C9.47441 6.98946 7.8918 8.55075 7.87687 10.4725C7.86123 12.4042 9.43673 13.9953 11.3691 13.9989C13.2909 14.0024 14.8671 12.4348 14.8749 10.513ZM11.3748 22.7495C13.0968 22.7495 14.818 22.7516 16.5393 22.7488C17.1401 22.7481 17.4963 22.3961 17.4991 21.8025C17.5027 21.1647 17.5155 20.527 17.4899 19.89C17.401 17.6966 15.5631 15.8382 13.3705 15.7656C12.0424 15.7223 10.7108 15.7237 9.38198 15.7656C7.33227 15.8303 5.54987 17.4705 5.31241 19.5103C5.22709 20.2391 5.26051 20.9827 5.25269 21.7193C5.24558 22.421 5.584 22.7495 6.29283 22.7495C7.98707 22.7502 9.6813 22.7495 11.3748 22.7495ZM2.35194 -6.10352e-05H18.5947C19.1066 0.218206 19.2801 0.612082 19.2573 1.15455C19.2289 1.84632 19.2509 2.53952 19.2509 3.23271V3.49932C20.1147 3.49932 20.9352 3.4979 21.755 3.50003C22.4062 3.50145 22.7503 3.84414 22.7503 4.49539C22.751 11.9961 22.751 19.4961 22.7503 26.9968C22.7503 27.6616 22.4076 27.9993 21.735 27.9993C15.6925 28 9.65002 28.0014 3.60822 27.9964C3.31885 27.9957 3.02309 27.9715 2.74155 27.9068C1.07788 27.5236 0.00218978 26.1401 0.00147881 24.3918C-0.00065409 18.751 0.000767845 13.1095 0.000767845 7.46794C0.000767845 5.89173 -0.00136506 4.3148 0.00147881 2.73787C0.00290075 1.82641 0.342743 1.07492 1.07788 0.516101C1.45612 0.22816 1.89763 0.0987635 2.35194 -6.10352e-05Z" fill="#3F85FB"/>
</g>
<path fill-rule="evenodd" clip-rule="evenodd" d="M11.375 22.7498C9.68081 22.7498 7.98658 22.7506 6.29305 22.7498C5.5835 22.7491 5.24508 22.4207 5.25291 21.7197C5.26073 20.9824 5.22731 20.2394 5.31192 19.5107C5.54938 17.4709 7.33248 15.83 9.3822 15.7653C10.7103 15.7234 12.0426 15.7219 13.3707 15.766C15.5626 15.8378 17.4012 17.697 17.4894 19.8903C17.5157 20.5267 17.5022 21.1651 17.4993 21.8028C17.4965 22.3958 17.1396 22.7477 16.5395 22.7491C14.8176 22.7513 13.0963 22.7498 11.375 22.7498Z" fill="white"/>
<path fill-rule="evenodd" clip-rule="evenodd" d="M14.8748 10.5129C14.8669 12.4347 13.2907 14.0023 11.369 13.9988C9.43657 13.9952 7.86106 12.4048 7.8767 10.4731C7.89163 8.55064 9.47425 6.98936 11.396 7.00073C13.3177 7.01211 14.8826 8.59188 14.8748 10.5129Z" fill="white"/>
<path fill-rule="evenodd" clip-rule="evenodd" d="M17.4877 1.74963V3.48368C17.4095 3.48866 17.3313 3.49861 17.2531 3.49933C12.415 3.50004 7.57615 3.50004 2.73801 3.49861C2.03202 3.49861 1.58767 2.94548 1.80451 2.33903C1.93035 1.98781 2.19128 1.79798 2.55814 1.75532C2.64843 1.74466 2.74086 1.74963 2.83186 1.74963C7.61525 1.74963 12.3986 1.74963 17.182 1.74963H17.4877Z" fill="white"/>
</svg>
