<svg width="24" height="24" viewBox="0 0 24 24" fill="none" xmlns="http://www.w3.org/2000/svg">
<path d="M9.60004 10.0667C9.06671 9.53333 8.26671 9.53333 7.73337 10.0667C7.20004 10.6 7.20004 11.4 7.73337 11.9333L10.4 14.6C10.6667 14.8667 10.9334 15 11.3334 15C11.7334 15 12 14.8667 12.2667 14.6L21.6 5.26667C22.1334 4.73333 22.1334 3.93333 21.6 3.4C21.0667 2.86667 20.2667 2.86667 19.7334 3.4L11.3334 11.8L9.60004 10.0667Z" fill="white"/>
<path d="M11.3333 21.6667C16.5333 21.6667 20.6667 17.5333 20.6667 12.3333C20.6667 11.5333 20.1333 11 19.3333 11C18.5333 11 18 11.5333 18 12.3333C18 16.0667 15.0667 19 11.3333 19C7.6 19 4.66667 16.0667 4.66667 12.3333C4.66667 8.6 7.6 5.66667 11.3333 5.66667C12.1333 5.66667 12.8 5.8 13.6 6.06667C14.2667 6.33333 15.0667 5.93333 15.3333 5.26667C15.6 4.6 15.2 3.8 14.5333 3.53333C13.4667 3.13333 12.4 3 11.3333 3C6.13333 3 2 7.13333 2 12.3333C2 17.5333 6.13333 21.6667 11.3333 21.6667Z" fill="white"/>
</svg>
