<svg width="36" height="36" viewBox="0 0 36 36" fill="none" xmlns="http://www.w3.org/2000/svg">
<mask id="mask0_0_1220" style="mask-type:luminance" maskUnits="userSpaceOnUse" x="0" y="0" width="36" height="36">
<path fill-rule="evenodd" clip-rule="evenodd" d="M0 0H36V35.9999H0V0Z" fill="white"/>
</mask>
<g mask="url(#mask0_0_1220)">
<path fill-rule="evenodd" clip-rule="evenodd" d="M36.0001 18C36.0001 27.9411 27.9411 35.9999 18.0001 35.9999C8.05892 35.9999 0 27.9411 0 18C0 8.05878 8.05892 0 18.0001 0C27.9411 0 36.0001 8.05878 36.0001 18Z" fill="#C1C1C1"/>
</g>
<path fill-rule="evenodd" clip-rule="evenodd" d="M18 36C21.9077 36 25.5243 34.7542 28.4753 32.6388C28.2033 32.155 27.8 31.7909 27.365 31.46C26.0686 30.4735 24.6593 29.6778 23.2122 28.9331C21.8311 28.2223 21.1434 27.0232 21.05 25.4775C21.0222 25.0184 21.1449 24.6816 21.5571 24.3831C22.4834 23.712 23.2758 22.8931 23.846 21.8853C24.1459 21.3552 24.3463 20.7918 24.2913 20.1719C24.2714 19.9492 24.2902 19.8584 24.5561 19.833C25.2765 19.7642 25.7364 19.2532 25.8056 18.5144C25.8646 17.884 25.4857 17.2618 24.8824 17.0972C24.5469 17.0057 24.5523 16.8309 24.6176 16.5706C24.7281 16.1299 24.8414 15.6888 24.9241 15.2425C25.1244 14.1616 25.2699 13.0755 25.0249 11.9806C24.7716 10.8489 24.1034 10.3198 22.9525 10.3644C22.7119 10.3736 22.5884 10.2893 22.4472 10.1112C21.1871 8.52139 19.5636 7.62885 17.5089 7.62008C15.759 7.61238 14.163 8.14726 12.7432 9.14751C10.6456 10.6253 9.87496 13.1411 10.7188 15.5775C10.8641 15.9972 11.0068 16.4181 11.1563 16.8363C11.209 16.9836 11.2022 17.0654 11.0316 17.1449C10.3895 17.444 10.1197 18.0066 10.2422 18.7268C10.3492 19.3556 10.8282 19.7848 11.5066 19.8502C11.6367 19.8627 11.752 19.8479 11.7305 20.0448C11.6271 20.9931 12.0253 21.7779 12.5624 22.51C13.1235 23.2747 13.7963 23.9347 14.5658 24.4836C14.858 24.6921 14.9582 24.9331 14.9542 25.2608C14.933 26.9381 14.2177 28.2176 12.7159 28.9832C11.3674 29.6705 10.063 30.4208 8.8434 31.3173C8.33552 31.6906 7.85814 32.0939 7.52747 32.6406C10.4779 34.7549 14.0934 36 18 36Z" fill="#FBFBFB"/>
</svg>
