<svg width="18" height="22" viewBox="0 0 18 22" fill="none" xmlns="http://www.w3.org/2000/svg">
<path fill-rule="evenodd" clip-rule="evenodd" d="M12.375 2.75001H16.5C17.2597 2.75001 17.875 3.36532 17.875 4.12498V5.50001C17.875 6.259 17.2597 6.87432 16.5007 6.87502H1.37363C0.615315 6.87432 0 6.259 0 5.50001V4.12501C0 3.36532 0.615315 2.75001 1.375 2.75001H5.49999V1.375C5.49999 0.615315 6.1153 0 6.87499 0H11C11.7597 0 12.375 0.615315 12.375 1.375V2.75001ZM6.87499 2.75001H11V2.06249C11 1.68297 10.692 1.37497 10.3125 1.37497H7.56248C7.18298 1.37497 6.87499 1.683 6.87499 2.06249V2.75001ZM1.37497 19.25C1.37497 20.7687 2.60628 22 4.12498 22H13.75C15.2687 22 16.5 20.7687 16.5 19.25V8.24999H1.37497V19.25ZM12.375 9.625C11.9955 9.625 11.6875 9.93302 11.6875 10.3125V18.5625C11.6875 18.942 11.9955 19.25 12.375 19.25C12.7545 19.25 13.0625 18.942 13.0625 18.5625V10.3125C13.0625 9.93299 12.7545 9.625 12.375 9.625ZM8.24999 10.3125C8.24999 9.93302 8.55799 9.625 8.93751 9.625C9.31703 9.625 9.625 9.93299 9.625 10.3125V18.5625C9.625 18.942 9.317 19.25 8.93751 19.25C8.55801 19.25 8.24999 18.942 8.24999 18.5625V10.3125ZM5.49999 9.625C5.12046 9.625 4.81247 9.93302 4.81247 10.3125V18.5625C4.81247 18.942 5.12046 19.25 5.49999 19.25C5.87951 19.25 6.1875 18.942 6.1875 18.5625V10.3125C6.1875 9.93299 5.87951 9.625 5.49999 9.625Z" fill="#3F85FB"/>
</svg>
