<svg width="20" height="17" viewBox="0 0 20 17" fill="none" xmlns="http://www.w3.org/2000/svg">
<path fill-rule="evenodd" clip-rule="evenodd" d="M6.5 1.49996C8.1532 1.49996 9.5 2.84672 9.5 4.49988C9.5 6.15303 8.1532 7.5001 6.5 7.5001C4.8468 7.5001 3.5 6.15303 3.5 4.49988C3.5 2.84672 4.8468 1.49996 6.5 1.49996ZM6.5 9.00006C8.98441 9.00006 11 6.98422 11 4.49988C11 2.01553 8.98441 0 6.5 0C4.01559 0 2 2.01553 2 4.49988C2 6.98422 4.01559 9.00006 6.5 9.00006ZM17.9257 13.3326H16.3852V14.8735C16.3852 15.3488 16.0006 15.7351 15.5248 15.7351C15.0473 15.7351 14.6625 15.3488 14.6625 14.8735V13.3326H13.1232C12.6473 13.3326 12.2609 12.9484 12.2609 12.471C12.2609 11.9957 12.6473 11.6106 13.1232 11.6106H14.6625V10.0706C14.6625 9.59537 15.0473 9.209 15.5248 9.209C16.0006 9.209 16.3852 9.59537 16.3852 10.0706V11.6106H17.9257C18.4004 11.6106 18.7868 11.9957 18.7868 12.471C18.7868 12.9484 18.4004 13.3326 17.9257 13.3326ZM15.5002 8.00006C13.0124 8.00006 11 10.0125 11 12.5002C11 14.9876 13.0124 17.0001 15.5002 17.0001C17.9876 17.0001 20 14.9876 20 12.5002C20 10.0125 17.9876 8.00006 15.5002 8.00006ZM1.55924 15.3847H10.7167C11.0579 15.994 11.4932 16.5392 12 17.0001H1.55924C0.698396 17.0001 0 16.2765 0 15.3847V14.5231C0 12.0262 1.95544 10.0001 4.36593 10.0001C4.77635 10.0001 5.09239 10.1038 5.44711 10.2202C5.90082 10.3691 6.41782 10.5387 7.27656 10.5387C8.13087 10.5387 8.63124 10.375 9.07684 10.2293C9.44453 10.109 9.77492 10.0009 10.2361 10.007C10.0573 10.5318 9.94031 11.087 9.8981 11.6628C9.83319 11.6791 9.74734 11.7076 9.64093 11.7429C9.199 11.8896 8.40228 12.1541 7.27656 12.1541C6.18989 12.1541 5.4844 11.925 4.99354 11.7656C4.73169 11.6806 4.53091 11.6154 4.36593 11.6154C2.81949 11.6154 1.55924 12.9213 1.55924 14.5231V15.3847Z" fill="#3F85FB"/>
</svg>
