<svg width="17" height="18" viewBox="0 0 17 18" fill="none" xmlns="http://www.w3.org/2000/svg">
<path fill-rule="evenodd" clip-rule="evenodd" d="M16.1254 2.99992C16.2346 2.99992 16.3245 3.03518 16.3948 3.10532C16.4649 3.17564 16.5003 3.26553 16.5002 3.37488V4.12496C16.5002 4.23431 16.4648 4.32424 16.3947 4.39439C16.3245 4.46466 16.2346 4.49979 16.1253 4.49979H15.0002V15.6095C15.0002 16.2579 14.8167 16.8184 14.4496 17.2912C14.0824 17.7637 13.641 18 13.1252 18H3.37496C2.85929 18 2.41788 17.7716 2.05064 17.3144C1.68348 16.8575 1.49988 16.3049 1.49988 15.6562V4.49979H0.374959C0.265652 4.49979 0.175761 4.46466 0.105407 4.39439C0.0350947 4.3242 0 4.23431 0 4.12496V3.37488C0 3.26553 0.0352589 3.17564 0.105407 3.10532C0.175761 3.03518 0.265488 2.99992 0.374959 2.99992H3.99607L4.81639 1.04299C4.93361 0.753817 5.14455 0.507744 5.44928 0.304605C5.75397 0.101508 6.06264 0 6.37504 0H10.1252C10.4376 0 10.7463 0.101508 11.0511 0.304605C11.3557 0.507744 11.5666 0.753858 11.6838 1.04299L12.5041 2.99992H16.1254ZM6.39852 1.49975C6.32041 1.51527 6.25395 1.55837 6.19932 1.62864L5.62508 2.99975H10.8753L10.3126 1.62864C10.2581 1.55845 10.1915 1.51539 10.1134 1.49975H6.39852ZM13.5003 15.6096C13.5003 15.7814 13.4731 15.9397 13.4183 16.0841C13.3635 16.2285 13.3068 16.334 13.2483 16.4004C13.1896 16.467 13.1488 16.5 13.1252 16.5H3.375C3.35156 16.5 3.31076 16.467 3.25202 16.4004C3.19337 16.334 3.13668 16.2285 3.08197 16.0841C3.02734 15.9397 3 15.7812 3 15.6096V4.49979H13.5003V15.6096H13.5003ZM5.62508 14.2502H4.87512C4.76565 14.2502 4.67588 14.215 4.60557 14.1448C4.53522 14.0743 4.50016 13.9847 4.50016 13.8751V7.12488C4.50016 7.01557 4.53534 6.92568 4.60557 6.85533C4.67588 6.78514 4.76565 6.75004 4.87512 6.75004H5.62508C5.73459 6.75004 5.82428 6.78518 5.89463 6.85533C5.96478 6.92568 6.00004 7.01557 6.00004 7.12488V13.8751C6.00004 13.9847 5.96478 14.0743 5.89463 14.1448C5.82449 14.2151 5.73455 14.2502 5.62508 14.2502ZM7.87516 14.2502H8.62512C8.73455 14.2502 8.82444 14.2151 8.89455 14.1448C8.96507 14.0743 9 13.9847 9 13.8751V7.12488C9 7.01557 8.96503 6.92568 8.89455 6.85533C8.82444 6.78518 8.73455 6.75004 8.62512 6.75004H7.87516C7.76582 6.75004 7.67592 6.78514 7.60561 6.85533C7.53526 6.92568 7.50021 7.01557 7.50021 7.12488V13.8751C7.50021 13.9847 7.53526 14.0743 7.60561 14.1448C7.67588 14.215 7.76582 14.2502 7.87516 14.2502ZM11.6251 14.2502H10.8753C10.7657 14.2502 10.6761 14.215 10.6056 14.1448C10.5353 14.0743 10.5002 13.9847 10.5002 13.8751V7.12488C10.5002 7.01557 10.5353 6.92568 10.6056 6.85533C10.6761 6.78514 10.7657 6.75004 10.8753 6.75004H11.6251C11.7347 6.75004 11.8246 6.78518 11.8948 6.85533C11.965 6.92568 12 7.01557 12 7.12488V13.8751C12 13.9847 11.965 14.0743 11.8948 14.1448C11.8246 14.2151 11.7347 14.2502 11.6251 14.2502Z" fill="#FF5757"/>
</svg>
