<svg width="20" height="20" viewBox="0 0 20 20" fill="none" xmlns="http://www.w3.org/2000/svg">
<path fill-rule="evenodd" clip-rule="evenodd" d="M8.0097 5.35689L10.9948 2.37182C12.8236 0.542494 15.7993 0.542963 17.6282 2.37182C19.457 4.20067 19.457 7.17637 17.6282 9.00522L14.6431 11.9903C14.5005 12.1329 14.349 12.2605 14.1938 12.3806C14.3499 11.5513 14.3199 10.6957 14.1023 9.87766L16.3017 7.67826C17.3993 6.58113 17.3993 4.7959 16.3017 3.69831C15.2046 2.60072 13.4193 2.60072 12.3217 3.69831L9.33667 6.68339C8.23907 7.78051 8.23907 9.56574 9.33667 10.6633C9.6833 11.01 10.0984 11.2464 10.5384 11.374C10.529 11.8383 10.354 12.2994 9.99991 12.6535L9.61529 13.0382C9.03037 12.8097 8.48158 12.4622 8.0097 11.9903C6.18085 10.1614 6.18085 7.18575 8.0097 5.35689ZM9.45581 8.62481C9.468 8.16045 9.64671 7.69983 9.99991 7.34663L10.3845 6.96201C10.9695 7.19044 11.5182 7.53801 11.9901 8.00988C13.819 9.83873 13.819 12.8144 11.9901 14.6433L9.00504 17.6284C7.17619 19.4572 4.20049 19.4572 2.37164 17.6284C0.542787 15.7995 0.542787 12.8238 2.37164 10.995L5.35672 8.00988C5.49743 7.86916 5.64706 7.74346 5.79998 7.62431C5.64378 8.45267 5.67849 9.30776 5.8952 10.1249L3.69813 12.3219C2.60054 13.419 2.60054 15.2043 3.69813 16.3019C4.79526 17.3995 6.58049 17.3995 7.67808 16.3019L10.6632 13.3168C11.7608 12.2197 11.7608 10.4344 10.6632 9.33684C10.3151 8.9888 9.89813 8.75193 9.45581 8.62481Z" fill="#3F85FB"/>
<path d="M10.9948 2.37182L11.1008 2.47788L11.1009 2.47787L10.9948 2.37182ZM8.0097 5.35689L8.11577 5.46296L8.0097 5.35689ZM17.6282 2.37182L17.7343 2.26575V2.26575L17.6282 2.37182ZM17.6282 9.00522L17.7343 9.11128L17.6282 9.00522ZM14.6431 11.9903L14.537 11.8842L14.6431 11.9903ZM14.1938 12.3806L14.0463 12.3528L13.9733 12.7407L14.2855 12.4992L14.1938 12.3806ZM14.1023 9.87766L13.9962 9.7716L13.9351 9.83271L13.9573 9.91623L14.1023 9.87766ZM16.3017 7.67826L16.1956 7.57217L16.1956 7.57219L16.3017 7.67826ZM16.3017 3.69831L16.1956 3.80435L16.1956 3.80437L16.3017 3.69831ZM12.3217 3.69831L12.2157 3.59224L12.3217 3.69831ZM9.33667 6.68339L9.44271 6.78948L9.44273 6.78945L9.33667 6.68339ZM9.33667 10.6633L9.44273 10.5573L9.33667 10.6633ZM10.5384 11.374L10.6884 11.377L10.6907 11.2619L10.5802 11.2299L10.5384 11.374ZM9.99991 12.6535L10.106 12.7596L9.99991 12.6535ZM9.61529 13.0382L9.56072 13.1779L9.65203 13.2136L9.72135 13.1442L9.61529 13.0382ZM8.0097 11.9903L8.11577 11.8842L8.0097 11.9903ZM9.99991 7.34663L10.106 7.4527V7.4527L9.99991 7.34663ZM9.45581 8.62481L9.30586 8.62087L9.30281 8.73692L9.41438 8.76898L9.45581 8.62481ZM10.3845 6.96201L10.4391 6.82228L10.3478 6.78662L10.2785 6.85594L10.3845 6.96201ZM11.9901 8.00988L12.0962 7.90381L11.9901 8.00988ZM9.00504 17.6284L8.89898 17.5223H8.89898L9.00504 17.6284ZM2.37164 17.6284L2.47771 17.5223L2.37164 17.6284ZM2.37164 10.995L2.47771 11.101L2.37164 10.995ZM5.35672 8.00988L5.25065 7.90381L5.35672 8.00988ZM5.79998 7.62431L5.94738 7.65211L6.02094 7.262L5.70778 7.50599L5.79998 7.62431ZM5.8952 10.1249L6.00126 10.2309L6.06232 10.1699L6.04018 10.0864L5.8952 10.1249ZM3.69813 12.3219L3.80418 12.428L3.8042 12.428L3.69813 12.3219ZM3.69813 16.3019L3.80422 16.1958L3.8042 16.1958L3.69813 16.3019ZM7.67808 16.3019L7.78415 16.4079L7.67808 16.3019ZM10.6632 13.3168L10.5571 13.2107L10.5571 13.2107L10.6632 13.3168ZM10.6632 9.33684L10.7692 9.23078L10.6632 9.33684ZM10.8887 2.26575L7.90364 5.25083L8.11577 5.46296L11.1008 2.47788L10.8887 2.26575ZM17.7343 2.26575C15.8468 0.378335 12.7762 0.377827 10.8887 2.26576L11.1009 2.47787C12.8711 0.70716 15.7518 0.70759 17.5221 2.47788L17.7343 2.26575ZM17.7343 9.11128C19.6217 7.22385 19.6217 4.15318 17.7343 2.26575L17.5221 2.47788C19.2924 4.24816 19.2924 7.12888 17.5221 8.89915L17.7343 9.11128ZM14.7492 12.0964L17.7343 9.11128L17.5221 8.89915L14.537 11.8842L14.7492 12.0964ZM14.2855 12.4992C14.444 12.3766 14.6007 12.2448 14.7492 12.0964L14.537 11.8842C14.4003 12.021 14.254 12.1443 14.102 12.2619L14.2855 12.4992ZM13.9573 9.91623C14.1692 10.7125 14.1984 11.5454 14.0463 12.3528L14.3412 12.4083C14.5015 11.5572 14.4707 10.6789 14.2472 9.8391L13.9573 9.91623ZM16.1956 7.57219L13.9962 9.7716L14.2083 9.98373L16.4078 7.78432L16.1956 7.57219ZM16.1956 3.80437C17.2347 4.8434 17.2346 6.53364 16.1956 7.57217L16.4077 7.78435C17.5639 6.62862 17.5639 4.7484 16.4078 3.59224L16.1956 3.80437ZM12.4278 3.80437C13.4668 2.76535 15.1571 2.76538 16.1956 3.80435L16.4078 3.59227C15.2521 2.43605 13.3718 2.43608 12.2157 3.59224L12.4278 3.80437ZM9.44273 6.78945L12.4278 3.80437L12.2157 3.59224L9.2306 6.57732L9.44273 6.78945ZM9.44273 10.5573C8.4037 9.51824 8.40374 7.828 9.44271 6.78948L9.23062 6.5773C8.07441 7.73302 8.07444 9.61324 9.2306 10.7694L9.44273 10.5573ZM10.5802 11.2299C10.1637 11.1091 9.77091 10.8854 9.44273 10.5573L9.2306 10.7694C9.59569 11.1345 10.0331 11.3836 10.4966 11.518L10.5802 11.2299ZM10.106 12.7596C10.4896 12.376 10.6783 11.877 10.6884 11.377L10.3884 11.3709C10.3798 11.7996 10.2185 12.2228 9.89385 12.5475L10.106 12.7596ZM9.72135 13.1442L10.106 12.7596L9.89385 12.5475L9.50922 12.9321L9.72135 13.1442ZM7.90364 12.0964C8.39075 12.5835 8.95728 12.9422 9.56072 13.1779L9.66985 12.8984C9.10346 12.6772 8.5724 12.3409 8.11577 11.8842L7.90364 12.0964ZM7.90364 5.25083C6.01621 7.13826 6.01621 10.2089 7.90364 12.0964L8.11577 11.8842C6.3455 10.114 6.3455 7.23323 8.11577 5.46296L7.90364 5.25083ZM9.89385 7.24057C9.5117 7.62271 9.31899 8.12069 9.30586 8.62087L9.60575 8.62875C9.61701 8.2002 9.78172 7.77695 10.106 7.4527L9.89385 7.24057ZM10.2785 6.85594L9.89385 7.24057L10.106 7.4527L10.4906 7.06807L10.2785 6.85594ZM12.0962 7.90381C11.6091 7.4167 11.0425 7.05795 10.4391 6.82228L10.33 7.10173C10.8964 7.32293 11.4274 7.65932 11.8841 8.11595L12.0962 7.90381ZM12.0962 14.7493C13.9836 12.8619 13.9836 9.79125 12.0962 7.90381L11.8841 8.11595C13.6543 9.88622 13.6543 12.7669 11.8841 14.5372L12.0962 14.7493ZM9.11111 17.7344L12.0962 14.7493L11.8841 14.5372L8.89898 17.5223L9.11111 17.7344ZM2.26557 17.7344C4.15301 19.6219 7.22368 19.6219 9.11111 17.7344L8.89898 17.5223C7.1287 19.2926 4.24798 19.2926 2.47771 17.5223L2.26557 17.7344ZM2.26557 10.8889C0.378142 12.7763 0.378142 15.847 2.26557 17.7344L2.47771 17.5223C0.707431 15.752 0.707431 12.8713 2.47771 11.101L2.26557 10.8889ZM5.25065 7.90381L2.26557 10.8889L2.47771 11.101L5.46278 8.11595L5.25065 7.90381ZM5.70778 7.50599C5.55209 7.6273 5.39728 7.75719 5.25065 7.90381L5.46278 8.11595C5.59759 7.98114 5.74204 7.85961 5.89217 7.74264L5.70778 7.50599ZM6.04018 10.0864C5.82909 9.29048 5.79541 8.45802 5.94738 7.65211L5.65257 7.59652C5.49215 8.44731 5.52789 9.32504 5.75021 10.1633L6.04018 10.0864ZM3.8042 12.428L6.00126 10.2309L5.78913 10.0188L3.59207 12.2159L3.8042 12.428ZM3.8042 16.1958C2.76517 15.1568 2.7652 13.4665 3.80418 12.428L3.59209 12.2158C2.43587 13.3716 2.43591 15.2518 3.59207 16.4079L3.8042 16.1958ZM7.57201 16.1958C6.53299 17.2348 4.84275 17.2348 3.80422 16.1958L3.59204 16.4079C4.74776 17.5641 6.62799 17.5641 7.78415 16.4079L7.57201 16.1958ZM10.5571 13.2107L7.57201 16.1958L7.78415 16.4079L10.7692 13.4229L10.5571 13.2107ZM10.5571 9.44291C11.5961 10.4819 11.5961 12.1722 10.5571 13.2107L10.7692 13.4229C11.9254 12.2672 11.9254 10.3869 10.7692 9.23078L10.5571 9.44291ZM9.41438 8.76898C9.83305 8.8893 10.2276 9.11341 10.5571 9.44291L10.7692 9.23078C10.4026 8.8642 9.9632 8.61456 9.49724 8.48065L9.41438 8.76898Z" fill="#1C84FF"/>
</svg>
