<svg width="38" height="38" viewBox="0 0 38 38" fill="none" xmlns="http://www.w3.org/2000/svg">
<g filter="url(#filter0_d_339_2537)">
<circle cx="15" cy="15" r="15" transform="matrix(-1 0 0 1 34 3)" fill="#3F85FB"/>
</g>
<path d="M18.9835 9.00001C16.5786 9.00433 14.395 9.95202 12.783 11.4926L11.4869 10.1965C10.9381 9.64783 10 10.0364 10 10.8124V15.6774C10 16.1585 10.3899 16.5484 10.871 16.5484H15.736C16.512 16.5484 16.9006 15.6103 16.3519 15.0615L14.8368 13.5464C15.9568 12.4977 17.4062 11.9167 18.9459 11.9035C22.2991 11.8745 25.1256 14.5881 25.0966 18.0526C25.069 21.339 22.4046 24.0968 19 24.0968C17.5075 24.0968 16.0969 23.5641 14.9852 22.5887C14.8131 22.4377 14.5532 22.4469 14.3912 22.6088L12.9519 24.0481C12.7751 24.2249 12.7838 24.5132 12.9694 24.6808C14.5653 26.1222 16.6801 27 19 27C23.9705 27 28 22.9706 28 18.0001C28 13.0352 23.9483 8.99112 18.9835 9.00001Z" fill="white"/>
<defs>
<filter id="filter0_d_339_2537" x="0" y="0" width="38" height="38" filterUnits="userSpaceOnUse" color-interpolation-filters="sRGB">
<feFlood flood-opacity="0" result="BackgroundImageFix"/>
<feColorMatrix in="SourceAlpha" type="matrix" values="0 0 0 0 0 0 0 0 0 0 0 0 0 0 0 0 0 0 127 0" result="hardAlpha"/>
<feOffset dy="1"/>
<feGaussianBlur stdDeviation="2"/>
<feColorMatrix type="matrix" values="0 0 0 0 0 0 0 0 0 0 0 0 0 0 0 0 0 0 0.111045 0"/>
<feBlend mode="normal" in2="BackgroundImageFix" result="effect1_dropShadow_339_2537"/>
<feBlend mode="normal" in="SourceGraphic" in2="effect1_dropShadow_339_2537" result="shape"/>
</filter>
</defs>
</svg>
