<svg width="82" height="82" viewBox="0 0 82 82" fill="none" xmlns="http://www.w3.org/2000/svg">
<path fill-rule="evenodd" clip-rule="evenodd" d="M78.4537 32.3652C76.329 15.6169 61.7492 3 44.4912 3H37.5091C20.2511 3 5.67133 15.6169 3.5466 32.3652C3.18389 34.3388 3 36.3568 3 38.3659V45.2038C3 63.839 18.4808 79 37.5091 79H44.4912C63.5195 79 79 63.839 79 45.2038V38.3659C79 36.3568 78.8164 34.3388 78.4537 32.3652Z" fill="white"/>
<path d="M78.4537 32.3652C76.329 15.6169 61.7492 3 44.4912 3H37.5091C20.2511 3 5.67133 15.6169 3.5466 32.3652C3.18389 34.3388 3 36.3568 3 38.3659V45.2038C3 63.839 18.4808 79 37.5091 79H44.4912C63.5195 79 79 63.839 79 45.2038V38.3659C79 36.3568 78.8164 34.3388 78.4537 32.3652" stroke="white" stroke-width="6"/>
<path fill-rule="evenodd" clip-rule="evenodd" d="M78.4537 32.3652C76.329 15.6169 61.7492 3 44.4912 3H37.5091C20.2511 3 5.67133 15.6169 3.5466 32.3652C3.18389 34.3388 3 36.3568 3 38.3659V45.2038C3 63.839 18.4808 79 37.5091 79H44.4912C63.5195 79 79 63.839 79 45.2038V38.3659C79 36.3568 78.8164 34.3388 78.4537 32.3652Z" fill="#D9F2FF"/>
<path d="M61.6012 53.29L43.6222 20.5577C43.3568 20.0773 42.99 19.6975 42.5211 19.4187C42.0533 19.1396 41.5459 19 40.9997 19C40.4535 19 39.946 19.1399 39.478 19.4187C39.0099 19.6975 38.6429 20.0773 38.3777 20.5577L20.3984 53.29C19.8521 54.2669 19.8676 55.2433 20.4451 56.2196C20.7107 56.6688 21.0736 57.0255 21.5339 57.2886C21.9946 57.5521 22.49 57.6842 23.0207 57.6842H58.9791C59.5104 57.6842 60.0057 57.5521 60.4661 57.2886C60.9269 57.0256 61.2892 56.6688 61.5549 56.2196C62.1324 55.2427 62.1481 54.2669 61.6012 53.29Z" fill="#3F85FB"/>
<path d="M43.997 50.9654C43.997 51.1821 43.9224 51.3641 43.7748 51.5113C43.6267 51.6587 43.451 51.7319 43.2478 51.7319H38.753C38.5502 51.7319 38.3745 51.6587 38.2264 51.5113C38.078 51.3641 38.0039 51.1821 38.0039 50.9654V46.5483C38.0039 46.3315 38.0781 46.1495 38.2264 46.0024C38.3745 45.8549 38.5499 45.7817 38.753 45.7817H43.2475C43.4508 45.7817 43.6263 45.8549 43.7746 46.0024C43.9224 46.1495 43.9968 46.3315 43.9968 46.5483V50.9654H43.997Z" fill="white"/>
<path d="M43.9508 42.2713C43.9345 42.4261 43.8525 42.5538 43.7047 42.6547C43.5562 42.7555 43.3729 42.8057 43.1544 42.8057H38.8233C38.6049 42.8057 38.4176 42.7552 38.2617 42.6547C38.1052 42.5535 38.0273 42.4261 38.0273 42.2707L37.6294 31.6472C37.6294 31.4301 37.7075 31.2674 37.8636 31.159C38.0664 30.9886 38.2537 30.9033 38.4256 30.9033H43.5758C43.7478 30.9033 43.9349 30.9882 44.1378 31.159C44.2938 31.2674 44.3716 31.4147 44.3716 31.6006L43.9508 42.2713Z" fill="white"/>
</svg>
