<svg width="183" height="160" viewBox="0 0 183 160" fill="none" xmlns="http://www.w3.org/2000/svg">
<circle cx="81.0001" cy="80" r="80" fill="#EBF2FF"/>
<path fill-rule="evenodd" clip-rule="evenodd" d="M123.459 27.4164H54.5094C44.5698 27.447 36.4736 35.5424 36.4624 45.4634V128.274H77.0118C77.3722 128.274 77.6713 128.398 77.9183 128.645C78.1697 128.899 78.3025 129.223 78.3025 129.584C78.3264 139.521 86.4248 147.614 96.3577 147.625C96.5062 147.625 96.6509 147.617 96.7695 147.608L96.8867 147.601C97.4962 147.581 97.999 147.547 98.4705 147.491C98.6936 147.464 98.9129 147.428 99.1465 147.39L99.2845 147.367C99.7963 147.281 100.263 147.185 100.703 147.074L100.787 147.053C100.965 147.01 101.141 146.965 101.328 146.912C105.037 145.831 108.305 143.566 110.66 140.473L110.81 140.514L111.826 138.819C113.506 136.017 114.397 132.823 114.404 129.578L114.399 45.4634C114.399 40.4119 116.248 35.5454 119.605 31.76L123.459 27.4164Z" fill="white"/>
<path fill-rule="evenodd" clip-rule="evenodd" d="M118.935 30.3152C115.275 34.4416 113.26 39.7491 113.26 45.2564L113.264 129.37C113.259 132.275 112.459 135.139 110.952 137.653L110.66 138.14L110.611 138.127C108.468 141.426 105.263 143.826 101.532 144.913C101.377 144.958 101.223 144.997 101.068 145.035L100.98 145.057C100.586 145.156 100.167 145.242 99.7017 145.32L99.5689 145.342C99.3704 145.375 99.1742 145.408 98.9735 145.432C98.5624 145.48 98.1111 145.512 97.5538 145.53L97.3882 145.539C97.2867 145.546 97.1867 145.553 97.083 145.553C88.1774 145.543 80.9146 138.285 80.8929 129.372C80.8929 128.526 80.5647 127.729 79.9701 127.127C79.3658 126.523 78.5921 126.202 77.7371 126.202H39.0528V45.2564C39.0625 36.3612 46.3246 29.1022 55.2407 29.0745H120.036L118.935 30.3152ZM130.59 22.7547L55.2429 22.7458C49.2118 22.7458 43.5612 25.0876 39.3184 29.3387C39.3281 29.3349 39.3095 29.3588 39.2826 29.3879C35.0451 33.662 32.7241 39.2873 32.7196 45.2572L32.7166 126.202H3.16923C2.33365 126.202 1.51896 126.54 0.928835 127.13C0.329755 127.729 0 128.525 0 129.37C0 141.565 9.92399 151.658 22.1219 151.87C22.1988 151.872 22.2749 151.876 22.351 151.882C22.4032 151.886 22.4569 151.89 22.5106 151.89H97.0778C97.7291 151.887 98.3931 151.854 99.1302 151.786C99.3242 151.769 99.5152 151.744 99.7061 151.72L99.8941 151.696C100.307 151.643 100.719 151.582 101.126 151.507C101.42 151.453 101.712 151.399 102 151.333C102.359 151.253 102.712 151.158 103.064 151.06C103.656 150.896 104.263 150.699 104.869 150.476L105.134 150.38C105.275 150.33 105.418 150.28 105.556 150.224C105.932 150.071 106.298 149.896 106.663 149.723L106.905 149.607C107.017 149.554 107.131 149.501 107.243 149.444C107.642 149.24 108.036 149.023 108.424 148.797L108.75 148.598C115.537 144.462 119.589 137.274 119.589 129.37L119.598 48.4249H149.895C150.549 48.4249 151.173 48.2227 151.705 47.8393C151.89 47.7079 152.019 47.602 152.125 47.4931C152.73 46.8955 153.059 46.101 153.059 45.2482C153.059 32.8615 142.979 22.7712 130.59 22.7547Z" fill="#3F85FB"/>
<path fill-rule="evenodd" clip-rule="evenodd" d="M60.2687 66.9553C60.2687 68.7048 58.8505 70.123 57.101 70.123C55.3515 70.123 53.9332 68.7048 53.9332 66.9553C53.9332 65.2058 55.3515 63.7875 57.101 63.7875C58.8505 63.7875 60.2687 65.2058 60.2687 66.9553Z" fill="#3F85FB"/>
<path fill-rule="evenodd" clip-rule="evenodd" d="M99.1327 66.9553C99.1327 68.7048 97.7145 70.123 95.965 70.123C94.2155 70.123 92.7972 68.7048 92.7972 66.9553C92.7972 65.2058 94.2155 63.7875 95.965 63.7875C97.7145 63.7875 99.1327 65.2058 99.1327 66.9553Z" fill="#3F85FB"/>
<path fill-rule="evenodd" clip-rule="evenodd" d="M97.7175 60.5499C96.6148 60.5499 95.6241 60.3112 94.7549 59.8307C92.6667 58.6795 92.102 56.566 92.0781 56.4772C91.9766 56.0803 92.2161 55.6767 92.6123 55.5737C93.0054 55.4775 93.4113 55.7073 93.5143 56.1042C93.5254 56.1459 93.9723 57.7156 95.4898 58.5415C96.7342 59.2189 98.377 59.2406 100.374 58.5997C100.758 58.4744 101.18 58.6885 101.307 59.0794C101.431 59.4689 101.218 59.8874 100.827 60.012C99.711 60.3708 98.6717 60.5499 97.7175 60.5499Z" fill="#3F85FB"/>
<path fill-rule="evenodd" clip-rule="evenodd" d="M53.8416 61.2054C52.8874 61.2054 51.8496 61.0263 50.732 60.6675C50.3411 60.5429 50.1277 60.1243 50.2523 59.7349C50.3777 59.3417 50.7954 59.1261 51.1849 59.2552C53.1821 59.8975 54.8249 59.8744 56.0693 59.197C57.5972 58.3659 58.0389 56.7761 58.0448 56.7597C58.15 56.3665 58.5484 56.1277 58.9498 56.2329C59.3452 56.3359 59.5824 56.738 59.481 57.1327C59.4571 57.2215 58.8924 59.335 56.8042 60.4862C55.935 60.9666 54.9442 61.2054 53.8416 61.2054Z" fill="#3F85FB"/>
<path fill-rule="evenodd" clip-rule="evenodd" d="M76.0465 79.412C74.2157 79.412 72.7706 78.9301 71.7478 77.9781C70.3713 76.6994 70.3079 75.0439 70.3057 74.9738C70.293 74.5642 70.616 74.2217 71.0249 74.2113C71.4412 74.1046 71.7731 74.5172 71.7873 74.9245C71.8015 75.2506 72.1059 78.0915 76.4613 77.9199C80.4811 77.7439 80.6534 75.7303 80.7094 75.0693L80.7332 74.7999L80.9526 74.4269C81.242 74.1367 81.7128 74.1367 82.0023 74.4269C82.1985 74.6224 82.2611 74.9014 82.1925 75.1513C81.8851 78.4869 78.9442 79.2964 76.5262 79.4008C76.3636 79.4083 76.2039 79.412 76.0465 79.412Z" fill="#3F85FB"/>
<path fill-rule="evenodd" clip-rule="evenodd" d="M104.773 74.0249C104.773 75.1768 102.334 76.1109 99.3261 76.1109C96.3173 76.1109 93.8784 75.1768 93.8784 74.0249C93.8784 72.873 96.3173 71.939 99.3261 71.939C102.334 71.939 104.773 72.873 104.773 74.0249Z" fill="#FFEAE6"/>
<path fill-rule="evenodd" clip-rule="evenodd" d="M59.3802 74.0249C59.3802 75.1768 56.9414 76.1109 53.9333 76.1109C50.9244 76.1109 48.4856 75.1768 48.4856 74.0249C48.4856 72.873 50.9244 71.939 53.9333 71.939C56.9414 71.939 59.3802 72.873 59.3802 74.0249Z" fill="#FFEAE6"/>
<path fill-rule="evenodd" clip-rule="evenodd" d="M180 86.2289L179.842 86.3132L134.939 107.77L116.954 103.811L125.711 110.992C125.711 110.992 113.675 117.617 103.469 110.258C102.82 109.799 102.802 109.858 102.194 109.279C102.032 109.166 102.541 109.646 101.586 108.701C105.813 84.1109 131.566 65.1216 180 86.2289Z" fill="#D1EEFF"/>
<path fill-rule="evenodd" clip-rule="evenodd" d="M180 86.2289L179.842 86.3132L134.939 107.77L116.954 103.811L125.711 110.992C125.711 110.992 113.675 117.617 103.469 110.258C102.82 109.799 102.802 109.858 102.194 109.279C102.032 109.166 102.541 109.646 101.586 108.701C105.813 84.1109 131.566 65.1216 180 86.2289Z" stroke="#0480EC" stroke-width="2"/>
<path fill-rule="evenodd" clip-rule="evenodd" d="M180 86.2289L179.842 86.3132C146.061 74.1101 109.861 96.4133 103.465 110.256C101.321 114.715 102.135 117.647 102.135 117.647L91.2527 128.029C94.0593 120.303 97.7165 113.881 101.581 108.703C123.102 79.1422 161.762 75.8155 180 86.2289Z" fill="#3F85FB"/>
<path fill-rule="evenodd" clip-rule="evenodd" d="M18.5605 21.9791L20.845 17.6692L31.4165 23.525L30.3735 25.4931L18.5605 21.9791Z" fill="#3F85FB"/>
<path fill-rule="evenodd" clip-rule="evenodd" d="M28.4756 10.4981L33.1884 9L35.8346 19.6708L33.5279 20.5646L28.4756 10.4981Z" fill="#3F85FB"/>
</svg>
