<svg width="96" height="96" viewBox="0 0 96 96" fill="none" xmlns="http://www.w3.org/2000/svg">
<mask id="mask0_11023_24867" style="mask-type:alpha" maskUnits="userSpaceOnUse" x="0" y="0" width="96" height="96">
<path fill-rule="evenodd" clip-rule="evenodd" d="M0 0H96.0001V95.9998H0V0Z" fill="white"/>
</mask>
<g mask="url(#mask0_11023_24867)">
<path fill-rule="evenodd" clip-rule="evenodd" d="M96.0001 47.9999C96.0001 74.5097 74.5097 95.9998 48.0003 95.9998C21.4904 95.9998 0 74.5097 0 47.9999C0 21.4901 21.4904 0 48.0003 0C74.5097 0 96.0001 21.4901 96.0001 47.9999Z" fill="#C1C1C1"/>
</g>
<path fill-rule="evenodd" clip-rule="evenodd" d="M48 96.0003C58.4206 96.0003 68.0649 92.6783 75.934 87.037C75.2088 85.7471 74.1334 84.776 72.9734 83.8935C69.5164 81.2629 65.7582 79.1412 61.8992 77.1552C58.2162 75.2599 56.3824 72.0621 56.1334 67.9404C56.0592 66.7159 56.3864 65.8179 57.4856 65.0218C59.9556 63.2323 62.0687 61.0487 63.5893 58.3613C64.3891 56.9475 64.9235 55.4452 64.7767 53.7921C64.7238 53.1983 64.7738 52.9561 65.4828 52.8884C67.4041 52.7048 68.6303 51.3422 68.8149 49.372C68.9722 47.6909 67.9619 46.0317 66.3531 45.593C65.4584 45.3489 65.4728 44.8828 65.647 44.1886C65.9417 43.0135 66.2437 41.8373 66.4643 40.647C66.9984 37.7645 67.3864 34.8682 66.7332 31.9486C66.0576 28.9307 64.2757 27.5199 61.2067 27.6387C60.565 27.6631 60.2357 27.4385 59.8592 26.9635C56.499 22.724 52.1696 20.3439 46.6903 20.3205C42.024 20.3 37.768 21.7264 33.9817 24.3937C28.3883 28.3344 26.3332 35.0432 28.5834 41.5403C28.971 42.6597 29.3515 43.7819 29.7502 44.8972C29.8906 45.2899 29.8726 45.508 29.4177 45.72C27.7052 46.5176 26.9857 48.018 27.3125 49.9385C27.598 51.6154 28.8753 52.7599 30.6842 52.9341C31.0312 52.9676 31.3385 52.928 31.2813 53.4531C31.0056 55.9819 32.0674 58.0748 33.4998 60.0269C34.996 62.0662 36.7902 63.8262 38.842 65.2899C39.6212 65.846 39.8887 66.4885 39.8779 67.3623C39.8213 71.8353 37.9138 75.2473 33.909 77.2888C30.3131 79.1218 26.8346 81.1226 23.5824 83.5131C22.228 84.5086 20.955 85.584 20.0732 87.0421C27.941 92.6801 37.5823 96.0003 48 96.0003Z" fill="#FBFBFB"/>
</svg>
