<svg width="38" height="56" viewBox="0 0 38 56" fill="none" xmlns="http://www.w3.org/2000/svg">
<mask id="mask0_0_541" style="mask-type:alpha" maskUnits="userSpaceOnUse" x="0" y="28" width="38" height="28">
<path fill-rule="evenodd" clip-rule="evenodd" d="M0 28H38V56H0V28Z" fill="white"/>
</mask>
<g mask="url(#mask0_0_541)">
<path fill-rule="evenodd" clip-rule="evenodd" d="M0.486162 56C0.107777 55.7362 -0.00097637 55.3762 -0.000332858 54.9198C0.0112503 48.2784 0.0163984 41.6376 0.000954165 34.9962C-0.0029069 33.4931 0.701095 32.4637 2.04346 31.9329C5.37106 30.6185 8.72311 29.365 12.0694 28.0981C12.7219 27.851 13.0301 28.0621 13.2238 28.8297C14.1016 32.3096 14.978 35.7895 15.8545 39.27C16.926 43.5271 17.9968 47.7842 19.1023 52.18C19.1866 51.9444 19.2394 51.8302 19.269 51.7102C21.1667 44.0727 23.0631 36.4345 24.9589 28.7964C25.1558 28.0037 25.4711 27.8356 26.2221 28.1514C29.4525 29.5113 32.6823 30.8739 35.9095 32.2416C37.4662 32.9007 38.0003 33.7575 37.9984 35.4577C37.9919 41.9342 37.9939 48.4113 38.0003 54.8884C38.001 55.3524 37.9508 55.7645 37.4849 56H0.486162Z" fill="#3F85FB"/>
</g>
<path fill-rule="evenodd" clip-rule="evenodd" d="M8.00254 12.4901C7.98187 10.5383 8.07232 8.61778 8.83594 6.77129C10.6429 2.39918 15.3506 -0.462792 19.9298 0.0618604C25.0645 0.65034 29.1191 4.29865 29.7238 9.18712C30.0778 12.0516 30.2458 14.9826 29.2528 17.803C27.5841 22.5409 22.9042 25.4296 17.7235 24.9478C12.9325 24.5029 8.83206 20.5776 8.1731 15.744C8.02645 14.6711 8.05487 13.5752 8.00254 12.4901" fill="#3F85FB"/>
<path fill-rule="evenodd" clip-rule="evenodd" d="M16.0385 37.1908C16.1691 35.8646 16.2727 34.5359 16.4407 33.2141C16.5515 32.3449 16.362 31.5734 15.8739 30.8539C15.6902 30.5832 15.4921 30.3208 15.3182 30.0437C14.5205 28.7714 15.2959 27.1719 16.8264 27.0597C17.9744 26.9761 19.1395 26.983 20.2888 27.0635C21.6717 27.1599 22.4412 28.7454 21.7307 29.9302C21.5169 30.2872 21.2584 30.6206 21.0072 30.956C20.5007 31.633 20.3348 32.3861 20.4377 33.2058C20.6063 34.5454 20.7828 35.8849 20.9343 37.2263C20.9619 37.4666 20.935 37.7328 20.853 37.9604C20.4673 39.0299 20.0481 40.0873 19.6518 41.1536C19.455 41.6842 19.1106 41.9955 18.5012 41.9999C17.8937 42.005 17.5329 41.7064 17.3335 41.1758C16.9281 40.0937 16.5089 39.0166 16.1146 37.9313C16.0313 37.7018 16.0326 37.4431 15.9952 37.1984C16.0097 37.1959 16.0241 37.1934 16.0385 37.1908" fill="#3F85FB"/>
</svg>
