<svg width="28" height="28" viewBox="0 0 28 28" fill="none" xmlns="http://www.w3.org/2000/svg">
<circle cx="14" cy="14" r="14" fill="#F0F1F5"/>
<path fill-rule="evenodd" clip-rule="evenodd" d="M6.66667 14C6.66667 9.58222 10.24 6 14.6622 6C19.0844 6 22.6667 9.58222 22.6667 14C22.6667 18.4178 19.0844 22 14.6622 22C12.4533 22 10.4578 21.1022 9.01333 19.6533L10.2711 18.3956C11.3956 19.52 12.9467 20.2222 14.6667 20.2222C18.1022 20.2222 20.8889 17.4356 20.8889 14C20.8889 10.5644 18.1022 7.77778 14.6667 7.77778C11.2311 7.77778 8.44444 10.5644 8.44444 14H11.1111L7.52444 17.5911L7.46222 17.4622L4 14H6.66667ZM13.7778 14.8889V10.4444H15.1111V14.2222L18.2222 16.0667L17.5822 17.1467L13.7778 14.8889Z" fill="#8A8D91"/>
</svg>
