<svg width="20" height="22" viewBox="0 0 20 22" fill="none" xmlns="http://www.w3.org/2000/svg">
<path fill-rule="evenodd" clip-rule="evenodd" d="M19.5084 1.48561C18.8514 0.835201 17.789 0.835201 17.132 1.48561L9.96414 8.65676L2.89973 1.58567C2.24765 0.935264 1.19033 0.935264 0.541588 1.58567C-0.110486 2.23608 -0.110486 3.30341 0.541588 3.95382L7.606 11.0082L0.491557 18.1293C-0.163852 18.7797 -0.163852 19.8471 0.491557 20.5142C1.14863 21.1646 2.21263 21.1646 2.86971 20.5142L9.98416 13.3931L17.0486 20.4641C17.7006 21.1145 18.758 21.1145 19.4084 20.4641C20.0605 19.8137 20.0605 18.7464 19.4084 18.096L12.3423 11.0416L19.5084 3.87043C20.1639 3.20335 20.1639 2.15269 19.5084 1.48561Z" fill="white"/>
</svg>
