<svg width="17" height="14" viewBox="0 0 17 14" fill="none" xmlns="http://www.w3.org/2000/svg">
<path fill-rule="evenodd" clip-rule="evenodd" d="M15.5554 2.78491C15.1338 2.36428 14.6253 2.15391 14.0294 2.15391H12.1409L11.711 1.00976C11.6041 0.734972 11.4089 0.497957 11.1249 0.298751C10.841 0.0996327 10.5502 0 10.2523 0H5.93548C5.63758 0 5.34667 0.0996327 5.0628 0.298751C4.77892 0.497957 4.58367 0.734972 4.47686 1.00976L4.0469 2.15391H2.15834C1.56245 2.15391 1.05388 2.36428 0.632274 2.78491C0.210758 3.20557 0 3.71314 0 4.30772V11.8461C0 12.4407 0.210758 12.9484 0.632274 13.3689C1.05388 13.7896 1.56248 14 2.15834 14H14.0292C14.625 14 15.1336 13.7896 15.5552 13.3689C15.9767 12.9484 16.1875 12.4407 16.1875 11.8461V4.30772C16.1876 3.71314 15.9768 3.20557 15.5554 2.78491ZM10.7622 10.7399C10.0231 11.4774 9.13371 11.8463 8.09379 11.8463C7.05388 11.8463 6.16455 11.4774 5.42537 10.7399C4.6862 10.0024 4.31669 9.11464 4.31669 8.07714C4.31669 7.03933 4.68632 6.15188 5.42537 5.41426C6.16446 4.67664 7.05391 4.3079 8.09379 4.3079C9.13368 4.3079 10.0231 4.67672 10.7622 5.41426C11.5014 6.1518 11.8709 7.03933 11.8709 8.07714C11.8709 9.11464 11.5014 10.0023 10.7622 10.7399ZM6.3935 6.39357C6.86417 5.92284 7.43091 5.6875 8.09375 5.6875C8.7565 5.6875 9.32333 5.92287 9.79397 6.39357C10.2646 6.86428 10.5 7.43094 10.5 8.09391C10.5 8.75667 10.2646 9.32339 9.79397 9.79407C9.3233 10.2647 8.7565 10.5 8.09375 10.5C7.43088 10.5 6.86417 10.2647 6.3935 9.79407C5.92283 9.32339 5.6875 8.75665 5.6875 8.09391C5.6875 7.43091 5.92283 6.86425 6.3935 6.39357Z" fill="#767676"/>
</svg>
