<svg width="24" height="24" viewBox="0 0 24 24" fill="none" xmlns="http://www.w3.org/2000/svg">
<path fill-rule="evenodd" clip-rule="evenodd" d="M14.1786 9.55145C14.1786 10.4487 13.4491 11.1792 12.5508 11.1792C11.6536 11.1792 10.924 10.4487 10.924 9.55145C10.924 8.65417 11.6536 7.92365 12.5508 7.92365C13.4491 7.92365 14.1786 8.65417 14.1786 9.55145ZM12.5508 6.28296C10.7493 6.28296 9.28235 7.74996 9.28235 9.55145C9.28235 11.3529 10.7493 12.8199 12.5508 12.8199C14.3533 12.8199 15.8193 11.3529 15.8193 9.55145C15.8193 7.74996 14.3533 6.28296 12.5508 6.28296Z" fill="#3F85FB"/>
<path fill-rule="evenodd" clip-rule="evenodd" d="M18.463 9.55136C18.463 11.6695 14.6705 17.7628 13.0605 19.3658C12.6824 19.7409 12.5533 19.7459 12.5514 19.7459C12.5504 19.7459 12.4154 19.7429 12.0243 19.3538C10.3767 17.7132 6.64069 11.7181 6.64069 9.55136C6.64069 6.29181 9.29181 3.64069 12.5514 3.64069C15.8109 3.64069 18.463 6.29181 18.463 9.55136ZM12.5514 2C8.38759 2 5 5.38759 5 9.55136C5 12.2888 9.49429 19.3191 11.536 21.3489C12.1166 21.9265 12.3826 22 12.5533 22C12.7161 22 12.9762 21.9275 13.5419 21.3638C15.6045 19.3141 20.1037 12.1846 20.1037 9.55136C20.1037 5.38759 16.7151 2 12.5514 2Z" fill="#3F85FB"/>
</svg>
