<svg width="24" height="24" viewBox="0 0 24 24" fill="none" xmlns="http://www.w3.org/2000/svg">
<mask id="mask0_99_4795" style="mask-type:alpha" maskUnits="userSpaceOnUse" x="5" y="3" width="15" height="18">
<path d="M14 3C14.1074 3 14.21 3.02069 14.3039 3.05831C14.3149 3.06294 14.3264 3.06783 14.3378 3.07298C14.3605 3.0831 14.3821 3.09412 14.4031 3.10605C14.4099 3.11003 14.417 3.11419 14.4241 3.11846C14.4452 3.13119 14.4655 3.14478 14.4851 3.15922C14.4931 3.16517 14.5011 3.1713 14.509 3.17758C14.528 3.19268 14.546 3.20835 14.5633 3.22476C14.5684 3.22961 14.5735 3.23459 14.5785 3.23964L19.4876 8.14873L19.5025 8.164C19.5166 8.17883 19.5301 8.19418 19.5431 8.21003L19.4876 8.14873C19.5169 8.17804 19.5438 8.20934 19.5681 8.24232C19.5825 8.2618 19.5961 8.28206 19.6088 8.30292C19.6131 8.31025 19.6172 8.31734 19.6213 8.32448C19.6519 8.37829 19.6767 8.43628 19.6945 8.49723C19.6964 8.50458 19.6984 8.51171 19.7003 8.51886C19.7048 8.53529 19.7087 8.55216 19.712 8.56922C19.7221 8.62104 19.7273 8.67389 19.7273 8.72727V18.5455C19.7273 19.9011 18.6283 21 17.2727 21H7.45455C6.09894 21 5 19.9011 5 18.5455V5.45455C5 4.09894 6.09894 3 7.45455 3H14ZM13.181 4.636L7.45455 4.63636C7.00268 4.63636 6.63636 5.00268 6.63636 5.45455V18.5455C6.63636 18.9973 7.00268 19.3636 7.45455 19.3636H17.2727C17.7246 19.3636 18.0909 18.9973 18.0909 18.5455L18.09 9.545L14 9.54545C13.5829 9.54545 13.2387 9.23333 13.1882 8.8299L13.1818 8.72727L13.181 4.636ZM14.8182 13.6364C15.2701 13.6364 15.6364 14.0027 15.6364 14.4545C15.6364 14.9064 15.2701 15.2727 14.8182 15.2727H9.90909C9.45722 15.2727 9.09091 14.9064 9.09091 14.4545C9.09091 14.0027 9.45722 13.6364 9.90909 13.6364H14.8182ZM14.818 5.793L14.8182 7.90909L16.933 7.909L14.818 5.793Z" fill="white"/>
</mask>
<g mask="url(#mask0_99_4795)">
<path d="M14 3C14.1074 3 14.21 3.02069 14.3039 3.05831C14.3149 3.06294 14.3264 3.06783 14.3378 3.07298C14.3605 3.0831 14.3821 3.09412 14.4031 3.10605C14.4099 3.11003 14.417 3.11419 14.4241 3.11846C14.4452 3.13119 14.4655 3.14478 14.4851 3.15922C14.4931 3.16517 14.5011 3.1713 14.509 3.17758C14.528 3.19268 14.546 3.20835 14.5633 3.22476C14.5684 3.22961 14.5735 3.23459 14.5785 3.23964L19.4876 8.14873L19.5025 8.164C19.5166 8.17883 19.5301 8.19418 19.5431 8.21003L19.4876 8.14873C19.5169 8.17804 19.5438 8.20934 19.5681 8.24232C19.5825 8.2618 19.5961 8.28206 19.6088 8.30292C19.6131 8.31025 19.6172 8.31734 19.6213 8.32448C19.6519 8.37829 19.6767 8.43628 19.6945 8.49723C19.6964 8.50458 19.6984 8.51171 19.7003 8.51886C19.7048 8.53529 19.7087 8.55216 19.712 8.56922C19.7221 8.62104 19.7273 8.67389 19.7273 8.72727V18.5455C19.7273 19.9011 18.6283 21 17.2727 21H7.45455C6.09894 21 5 19.9011 5 18.5455V5.45455C5 4.09894 6.09894 3 7.45455 3H14ZM13.181 4.636L7.45455 4.63636C7.00268 4.63636 6.63636 5.00268 6.63636 5.45455V18.5455C6.63636 18.9973 7.00268 19.3636 7.45455 19.3636H17.2727C17.7246 19.3636 18.0909 18.9973 18.0909 18.5455L18.09 9.545L14 9.54545C13.5829 9.54545 13.2387 9.23333 13.1882 8.8299L13.1818 8.72727L13.181 4.636ZM14.8182 13.6364C15.2701 13.6364 15.6364 14.0027 15.6364 14.4545C15.6364 14.9064 15.2701 15.2727 14.8182 15.2727H9.90909C9.45722 15.2727 9.09091 14.9064 9.09091 14.4545C9.09091 14.0027 9.45722 13.6364 9.90909 13.6364H14.8182ZM14.818 5.793L14.8182 7.90909L16.933 7.909L14.818 5.793Z" fill="#3F85FB"/>
</g>
</svg>
