<svg width="24" height="24" viewBox="0 0 24 24" fill="none" xmlns="http://www.w3.org/2000/svg">
<path fill-rule="evenodd" clip-rule="evenodd" d="M18.409 4C19.838 4.0033 20.9957 5.16095 20.999 6.59V16.954C20.9962 18.3834 19.8384 19.5417 18.409 19.545H4.59098C3.16193 19.5417 2.00428 18.384 2.00098 16.955V6.59C2.00427 5.16134 3.16132 4.00385 4.58998 4H18.408H18.409ZM19.272 8.249L11.995 13.344C11.6977 13.5518 11.3023 13.5518 11.005 13.344L3.72698 8.249V16.954C3.72698 17.427 4.11698 17.818 4.59098 17.818H18.409C18.882 17.818 19.273 17.428 19.273 16.954L19.272 8.249ZM4.59098 5.727H18.409C18.7356 5.7291 19.0334 5.91414 19.18 6.206L11.5 11.582L3.81898 6.207C3.96543 5.91443 4.2638 5.72891 4.59098 5.727Z" fill="#3F85FB"/>
</svg>
