<svg width="24" height="24" viewBox="0 0 24 24" fill="none" xmlns="http://www.w3.org/2000/svg">
<mask id="mask0_240_2460" style="mask-type:alpha" maskUnits="userSpaceOnUse" x="1" y="2" width="21" height="21">
<path fill-rule="evenodd" clip-rule="evenodd" d="M1 2H21.503V22.501H1V2Z" fill="white"/>
</mask>
<g mask="url(#mask0_240_2460)">
<path fill-rule="evenodd" clip-rule="evenodd" d="M3.72978 4.375H18.7728L12.2508 10.896V19.875L10.2508 18.375V10.896L3.72978 4.375ZM21.3358 3.313C21.0008 2.503 20.2498 2 19.3748 2H3.12778C2.25378 2 1.50178 2.503 1.16678 3.313C0.832784 4.123 1.00778 5.009 1.62578 5.627L7.87578 11.881V18.5C7.87578 19.153 8.17278 19.775 8.72778 20.264L11.2328 22.106C11.6088 22.368 12.0448 22.501 12.4858 22.501C12.8338 22.501 13.1848 22.418 13.5078 22.249C14.2088 21.884 14.6258 21.193 14.6258 20.401V11.881L20.8768 5.627C21.4958 5.01 21.6708 4.123 21.3358 3.313Z" fill="white"/>
</g>
</svg>
