<svg width="46" height="47" viewBox="0 0 46 47" fill="none" xmlns="http://www.w3.org/2000/svg">
<mask id="mask0_300_2606" style="mask-type:alpha" maskUnits="userSpaceOnUse" x="0" y="0" width="46" height="47">
<path fill-rule="evenodd" clip-rule="evenodd" d="M0.240845 0.675415H45.8253V46.1937H0.240845V0.675415Z" fill="white"/>
</mask>
<g mask="url(#mask0_300_2606)">
<path fill-rule="evenodd" clip-rule="evenodd" d="M45.6308 1.93617C45.2639 1.09571 44.6285 0.675673 43.7224 0.675293H2.34284C1.43782 0.675293 0.801686 1.09571 0.435576 1.93617C0.0690862 2.81954 0.21986 3.57417 0.888276 4.19929L16.8262 20.1368V35.8484C16.8262 36.4094 17.0313 36.8936 17.4407 37.3038L25.7162 45.5792C26.1043 45.9882 26.5893 46.1937 27.1711 46.1937C27.4297 46.1937 27.699 46.1394 27.9793 46.0319C28.8201 45.665 29.2405 45.0297 29.2405 44.1246V20.1368L45.1781 4.19929C45.8469 3.57455 45.9973 2.81992 45.6308 1.93617Z" fill="#3F85FB"/>
</g>
<path fill-rule="evenodd" clip-rule="evenodd" d="M21.1224 9.68743C22.5797 9.69655 23.8094 8.47175 23.8075 7.01339C23.8056 5.5273 22.6222 4.34124 21.1372 4.33668C19.6534 4.33213 18.4529 5.52198 18.4529 6.99744C18.4529 8.47137 19.6504 9.67794 21.1224 9.68743Z" fill="white"/>
<path fill-rule="evenodd" clip-rule="evenodd" d="M21.7875 23.9443C20.6409 23.9474 19.7245 24.8672 19.7287 26.0115C19.7329 27.1683 20.6729 28.079 21.8536 28.0711C22.961 28.0638 23.8619 27.1307 23.8539 25.9993C23.8459 24.8402 22.942 23.9413 21.7875 23.9443Z" fill="white"/>
<path fill-rule="evenodd" clip-rule="evenodd" d="M24.8221 13.3194C23.9517 13.3278 23.2532 14.0406 23.2529 14.9217C23.2525 15.8252 23.9794 16.5396 24.8833 16.5229C25.7496 16.5073 26.4294 15.7861 26.4184 14.8947C26.4073 14.0174 25.6918 13.3114 24.8221 13.3194Z" fill="white"/>
<path fill-rule="evenodd" clip-rule="evenodd" d="M34.2205 4.33675C33.2433 4.34586 32.4598 5.14606 32.459 6.13502C32.4587 7.14941 33.2748 7.95075 34.2892 7.93214C35.2615 7.91429 36.0244 7.10536 36.0119 6.10501C35.9998 5.12024 35.1965 4.32763 34.2205 4.33675Z" fill="white"/>
<path fill-rule="evenodd" clip-rule="evenodd" d="M12.0936 5.62763C11.4328 5.61586 10.8676 6.15363 10.8456 6.81521C10.8236 7.46654 11.3682 8.0457 12.0264 8.07039C12.7012 8.09583 13.2891 7.53528 13.2994 6.85661C13.3093 6.20452 12.7548 5.6394 12.0936 5.62763Z" fill="white"/>
</svg>
