<svg width="24" height="18" viewBox="0 0 24 18" fill="none" xmlns="http://www.w3.org/2000/svg">
<path fill-rule="evenodd" clip-rule="evenodd" d="M17.0436 14.4696V3.52793C17.0436 2.77682 17.28 2.04761 17.7144 1.44502H9.0096C7.8792 1.44867 6.9564 2.38239 6.9564 3.52793V13.7465H12.2244C12.4152 13.7465 12.594 13.8208 12.7284 13.9571C12.8616 14.0935 12.936 14.2761 12.936 14.4696C12.9396 15.6152 13.8612 16.5513 14.9904 16.5513L15.0468 16.5489C15.1116 16.5477 15.1704 16.544 15.228 16.5367L15.2892 16.5282C15.3756 16.5136 15.432 16.5026 15.486 16.4892C15.5064 16.4832 15.534 16.4759 15.5616 16.4686C16.05 16.3237 16.4736 15.9901 16.7448 15.5336L16.8168 15.4131C16.9656 15.1197 17.0436 14.7959 17.0436 14.4696ZM9.0072 0L20.5464 0.00121737C22.452 0.0146084 24 1.5911 24 3.52671C24 3.72271 23.9256 3.90532 23.7888 4.03923C23.7648 4.06479 23.7336 4.09036 23.7024 4.1147C23.5752 4.20479 23.4336 4.25105 23.2872 4.25105H18.4704L18.468 14.4696C18.468 15.7089 17.8428 16.835 16.794 17.4826C16.782 17.4911 16.7628 17.5033 16.7424 17.5155C16.6824 17.5508 16.6224 17.5849 16.56 17.6165L16.4544 17.6677L16.4543 17.6677C16.404 17.692 16.3536 17.7164 16.302 17.737L16.1976 17.776C16.1028 17.8113 16.0104 17.8417 15.9144 17.8685C15.8604 17.8843 15.8064 17.899 15.75 17.9123C15.72 17.9197 15.6888 17.9257 15.6564 17.9306L15.6168 17.9391L15.5902 17.9436C15.5339 17.953 15.4798 17.962 15.4248 17.9683C15.3648 17.9769 15.3348 17.9805 15.3036 17.983C15.204 17.9927 15.0996 17.9988 14.994 17.9988L3.438 17.9976C1.5324 17.9635 0 16.3821 0 14.4696C0 14.2785 0.0756 14.0922 0.2076 13.9571C0.342 13.822 0.5256 13.7465 0.7116 13.7465H5.5296V3.52793C5.5308 2.59299 5.8896 1.7104 6.5388 1.0445C7.2048 0.366428 8.0772 0 9.0072 0ZM14.8186 6.16621H9.15936V4.94884H14.8186V6.16621ZM9.15936 8.74581H14.8186V7.52845H9.15936V8.74581ZM14.8186 11.3242H9.15936V10.1068H14.8186V11.3242Z" fill="#8A8D91"/>
</svg>
