<svg width="24" height="24" viewBox="0 0 24 24" fill="none" xmlns="http://www.w3.org/2000/svg">
<path fill-rule="evenodd" clip-rule="evenodd" d="M11.995 3C9.60843 2.99973 7.31961 3.94802 5.63251 5.63605C3.94542 7.32408 2.99841 9.61343 3 12C3 16.973 7.023 21 11.995 21C16.968 21 21 16.973 21 12C21 7.027 16.968 3 11.995 3ZM12 19.2C10.0903 19.2005 8.25862 18.4421 6.90825 17.0918C5.55787 15.7414 4.79947 13.9097 4.8 12C4.8 8.022 8.022 4.8 12 4.8C15.978 4.8 19.2 8.022 19.2 12C19.2 15.978 15.978 19.2 12 19.2ZM11.1 7.5H12.45V12.225L16.5 14.628L15.82 15.735L11.1 12.9V7.5Z" fill="#3F85FB"/>
</svg>
