<svg width="24" height="24" viewBox="0 0 24 24" fill="none" xmlns="http://www.w3.org/2000/svg">
<path fill-rule="evenodd" clip-rule="evenodd" d="M19.9369 2.83945C19.9397 2.86856 19.9412 2.89779 19.9413 2.92704L19.9415 2.93114V5.87104C19.9415 6.38528 19.5246 6.80218 19.0104 6.80218C18.4961 6.80218 18.0792 6.38528 18.0792 5.87104V5.17921L16.6728 6.58566C17.4744 7.66348 17.9493 8.99792 17.9493 10.4412C17.9493 13.6952 15.5362 16.3958 12.4058 16.8486L12.4058 18.0589H13.5534C14.0677 18.0589 14.4846 18.4758 14.4846 18.9901C14.4846 19.5043 14.0677 19.9212 13.5534 19.9212H12.4058L12.4059 21.0688C12.4059 21.5831 11.989 22 11.4747 22C10.9605 22 10.5436 21.5831 10.5436 21.0689L10.5436 19.9212H9.39589C8.88166 19.9212 8.46476 19.5043 8.46476 18.9901C8.46476 18.4758 8.88166 18.0589 9.39589 18.0589H10.5435L10.5434 16.8486C7.41295 16.3957 5 13.6952 5 10.4412C5 6.87108 7.90452 3.96656 11.4746 3.96656C12.9312 3.96656 14.2768 4.45019 15.3598 5.26506L16.7625 3.86227H16.0705C15.5563 3.86227 15.1394 3.44537 15.1394 2.93114C15.1394 2.4169 15.5563 2 16.0705 2H19.0104C19.0171 2 19.0236 2.0005 19.0302 2.00101C19.0338 2.00127 19.0373 2.00154 19.0409 2.00174L19.0456 2.00188C19.0643 2.00244 19.0829 2.00301 19.1015 2.00478C19.1148 2.0061 19.1278 2.00819 19.1408 2.01029C19.145 2.01097 19.1492 2.01164 19.1534 2.01229C19.1575 2.01291 19.1616 2.01347 19.1656 2.01404C19.1743 2.01524 19.183 2.01644 19.1916 2.01813C19.2066 2.02111 19.2212 2.02496 19.2359 2.0288C19.2389 2.02959 19.2419 2.03038 19.2449 2.03116C19.2487 2.03212 19.2524 2.03304 19.2562 2.03396C19.2642 2.03588 19.2721 2.03781 19.28 2.04016C19.2939 2.04434 19.3075 2.04935 19.3211 2.05438C19.3241 2.05548 19.3271 2.05658 19.3301 2.05767C19.3342 2.05919 19.3383 2.06064 19.3425 2.0621C19.3504 2.06486 19.3582 2.06762 19.366 2.07083C19.3788 2.07615 19.3913 2.08214 19.4037 2.08815C19.4064 2.08944 19.409 2.09072 19.4117 2.092C19.4154 2.09378 19.4192 2.09552 19.4229 2.09726C19.4316 2.10128 19.4402 2.10531 19.4487 2.10981C19.4603 2.11605 19.4715 2.12291 19.4827 2.12977C19.4857 2.13159 19.4886 2.1334 19.4916 2.1352C19.4953 2.13746 19.4991 2.13967 19.5028 2.14187C19.5109 2.14665 19.519 2.15142 19.5269 2.15668C19.5409 2.166 19.5543 2.1762 19.5676 2.1864C19.5696 2.18796 19.5717 2.18951 19.5737 2.19107C19.5771 2.19361 19.5805 2.19607 19.5839 2.19853C19.5894 2.2025 19.5949 2.20648 19.6002 2.21081C19.648 2.24995 19.6917 2.29374 19.7309 2.34154C19.7355 2.34716 19.7397 2.35296 19.7439 2.35877C19.7465 2.36239 19.7491 2.36602 19.7519 2.3696C19.7541 2.3726 19.7564 2.3756 19.7587 2.3786C19.7677 2.39047 19.7767 2.40234 19.785 2.41473C19.7906 2.42303 19.7956 2.43153 19.8006 2.44004C19.8029 2.444 19.8052 2.44797 19.8076 2.45191C19.8097 2.4554 19.8118 2.45887 19.814 2.46234C19.8201 2.47238 19.8262 2.48239 19.8318 2.49282C19.8368 2.50212 19.8412 2.51165 19.8456 2.52117C19.8474 2.52493 19.8491 2.52868 19.8509 2.53242C19.8524 2.53571 19.854 2.53898 19.8556 2.54226C19.8609 2.55317 19.8661 2.5641 19.8708 2.57532C19.8744 2.58417 19.8776 2.59313 19.8807 2.6021C19.8822 2.60634 19.8837 2.61057 19.8852 2.6148C19.8864 2.61811 19.8876 2.62142 19.8888 2.62473C19.8933 2.63679 19.8977 2.64886 19.9015 2.66123C19.9041 2.67009 19.9063 2.67903 19.9084 2.68798C19.9095 2.69239 19.9106 2.6968 19.9117 2.70121C19.9126 2.70486 19.9136 2.7085 19.9146 2.71214C19.9178 2.72449 19.921 2.73685 19.9235 2.7495C19.9257 2.76042 19.9272 2.77145 19.9287 2.78248C19.9294 2.78701 19.93 2.79154 19.9306 2.79606C19.9313 2.80073 19.9321 2.80539 19.9328 2.81004C19.9344 2.81979 19.9359 2.82953 19.9369 2.83945ZM6.86227 10.4412C6.86227 12.9845 8.93138 15.0536 11.4746 15.0536C14.0179 15.0536 16.087 12.9845 16.087 10.4412C16.087 7.89794 14.0179 5.82883 11.4746 5.82883C8.93132 5.82883 6.86227 7.89794 6.86227 10.4412Z" fill="#3F85FB"/>
</svg>
