<svg width="24" height="24" viewBox="0 0 24 24" fill="none" xmlns="http://www.w3.org/2000/svg">
<mask id="mask0_0_2644" style="mask-type:alpha" maskUnits="userSpaceOnUse" x="5" y="12" width="15" height="10">
<path fill-rule="evenodd" clip-rule="evenodd" d="M5 12.5769H19.079V21.7719H5V12.5769Z" fill="white"/>
</mask>
<g mask="url(#mask0_0_2644)">
<path fill-rule="evenodd" clip-rule="evenodd" d="M5 18.7669C5 15.3539 8.158 12.5769 12.038 12.5779V12.5769C15.92 12.5769 19.077 15.3539 19.077 18.7669C19.097 19.2719 18.913 19.7379 18.526 20.1399C17.071 21.6529 13.253 21.7709 12.117 21.7709C10.537 21.7709 8.923 21.5689 7.57 21.2019C5.331 20.4459 5 19.3519 5 18.7669ZM12.117 20.1479C15.735 20.1479 17.627 19.2489 17.627 18.7679C17.553 16.2539 15.08 14.2019 12.117 14.2019C9.078 14.2019 6.607 16.2499 6.607 18.7679C6.607 19.2489 8.5 20.1479 12.117 20.1479Z" fill="#3F85FB"/>
</g>
<mask id="mask1_0_2644" style="mask-type:alpha" maskUnits="userSpaceOnUse" x="7" y="3" width="10" height="10">
<path fill-rule="evenodd" clip-rule="evenodd" d="M7.58704 3.17603H16.725V12.53H7.58704V3.17603Z" fill="white"/>
</mask>
<g mask="url(#mask1_0_2644)">
<path fill-rule="evenodd" clip-rule="evenodd" d="M16.725 7.85203C16.725 10.43 14.658 12.53 12.116 12.53H12.117C9.57704 12.53 7.58704 10.474 7.58704 7.85203C7.58704 5.23003 9.57704 3.17603 12.117 3.17603C14.658 3.17603 16.725 5.27403 16.725 7.85203ZM12.116 4.88003C10.506 4.88003 9.19604 6.21303 9.19604 7.85203C9.19604 9.43703 10.561 10.825 12.116 10.825C13.744 10.825 15.116 9.46403 15.116 7.85203C15.116 6.24203 13.744 4.88003 12.116 4.88003Z" fill="#3F85FB"/>
</g>
</svg>
