<svg width="24" height="24" viewBox="0 0 24 24" fill="none" xmlns="http://www.w3.org/2000/svg">
<path fill-rule="evenodd" clip-rule="evenodd" d="M10.2308 7.87279L12.8843 5.21939C14.5099 3.59333 17.155 3.59374 18.7806 5.21939C20.4063 6.84504 20.4063 9.4901 18.7806 11.1157L16.1272 13.7692C16.0005 13.8959 15.8658 14.0093 15.7278 14.116C15.8666 13.3789 15.8399 12.6184 15.6465 11.8913L17.6015 9.93623C18.5771 8.96101 18.5771 7.37413 17.6015 6.3985C16.6263 5.42286 15.0394 5.42286 14.0638 6.3985L11.4104 9.0519C10.4347 10.0271 10.4347 11.614 11.4104 12.5896C11.7185 12.8977 12.0875 13.1079 12.4786 13.2213C12.4702 13.6341 12.3147 14.0439 11.9999 14.3587L11.658 14.7006C11.1381 14.4975 10.6503 14.1886 10.2308 13.7692C8.6052 12.1435 8.6052 9.49844 10.2308 7.87279ZM11.5163 10.7776C11.5271 10.3648 11.686 9.95541 11.9999 9.64145L12.3418 9.29956C12.8617 9.50261 13.3496 9.81156 13.769 10.231C15.3946 11.8567 15.3946 14.5017 13.769 16.1274L11.1156 18.7808C9.48995 20.4064 6.84488 20.4064 5.21924 18.7808C3.59359 17.1551 3.59359 14.5101 5.21924 12.8844L7.87264 10.231C7.99772 10.1059 8.13072 9.99418 8.26665 9.88828C8.12781 10.6246 8.15866 11.3847 8.35128 12.111L6.39834 14.0639C5.4227 15.0391 5.4227 16.626 6.39834 17.6017C7.37356 18.5773 8.96043 18.5773 9.93607 17.6017L12.5895 14.9483C13.5651 13.973 13.5651 12.3862 12.5895 11.4105C12.2801 11.1012 11.9094 10.8906 11.5163 10.7776Z" fill="#3F85FB"/>
</svg>
