<svg width="24" height="24" viewBox="0 0 24 24" fill="none" xmlns="http://www.w3.org/2000/svg">
<path fill-rule="evenodd" clip-rule="evenodd" d="M20.0449 8.17624C20.0449 9.55746 19.5813 10.8527 18.7956 11.8028C20.1694 12.4548 22.5909 13.6776 22.5909 17.3587V18.7171H18.4583C18.6236 19.2711 18.7214 19.9068 18.7214 20.6416V22H4.86865V20.6416C4.86865 19.9068 4.96644 19.2711 5.13175 18.7171H1V17.3587C1 13.6774 3.42149 12.4546 4.7953 11.8026C4.00937 10.8538 3.5462 9.56063 3.5462 8.17624C3.5462 5.32211 5.51103 3 7.92647 3C9.60196 3 11.0594 4.11815 11.7956 5.75565C12.5317 4.11815 13.9892 3 15.6647 3C18.0799 3 20.0449 5.32211 20.0449 8.17624ZM2.34577 17.3587H5.75977C6.59012 16.0986 7.82284 15.4844 8.66395 15.0851C7.87802 14.1365 7.41485 12.8433 7.41485 11.4589C7.41485 9.07909 8.78171 7.07009 10.6362 6.46788C10.138 5.21797 9.11344 4.35813 7.92647 4.35813C6.25076 4.35813 4.89198 6.06762 4.89198 8.17601C4.89198 9.77661 5.67522 11.1447 6.78481 11.7125L6.69441 12.2001C6.46384 12.5124 5.99723 12.7334 5.45205 12.9916C4.12993 13.6177 2.34577 14.4627 2.34577 17.3587ZM11.8346 20.6416H6.21442C6.21442 17.7458 7.99857 16.9007 9.32069 16.2745C9.86587 16.0163 10.3325 15.7953 10.5631 15.4831L10.6535 14.9954C9.54386 14.4276 8.76062 13.0595 8.76062 11.4589C8.76062 9.35054 10.1194 7.64105 11.7951 7.64105C13.4708 7.64105 14.8296 9.35054 14.8296 11.4589C14.8296 13.0455 14.0603 14.4054 12.9655 14.9818L13.0684 15.5363C13.3109 15.8211 13.755 16.0314 14.2689 16.2747C15.5911 16.9008 17.3754 17.7457 17.3754 20.6416H11.8346ZM14.9261 15.0855C15.7669 15.4846 16.9999 16.0989 17.8302 17.3587H21.2449C21.2449 14.4629 19.4607 13.6181 18.1385 12.992C17.6246 12.7487 17.1805 12.5384 16.938 12.2536L16.835 11.6991C17.9298 11.1225 18.6992 9.7628 18.6992 8.17601C18.6992 6.06762 17.3406 4.35813 15.6647 4.35813C14.4777 4.35813 13.4529 5.21797 12.9547 6.46811C14.8088 7.07054 16.1754 9.07909 16.1754 11.4589C16.1754 12.8402 15.7118 14.1353 14.9261 15.0855Z" fill="#3F85FB"/>
<path d="M18.7956 11.8028L18.68 11.7072L18.5572 11.8557L18.7313 11.9383L18.7956 11.8028ZM22.5909 18.7171V18.8671H22.7409V18.7171H22.5909ZM18.4583 18.7171V18.5671H18.257L18.3145 18.76L18.4583 18.7171ZM18.7214 22V22.15H18.8714V22H18.7214ZM4.86865 22H4.71865V22.15H4.86865V22ZM5.13175 18.7171L5.27548 18.76L5.33304 18.5671H5.13175V18.7171ZM1 18.7171H0.85V18.8671H1V18.7171ZM4.7953 11.8026L4.85962 11.9381L5.03384 11.8554L4.91082 11.7069L4.7953 11.8026ZM11.7956 5.75565L11.6588 5.81715L11.7956 6.12148L11.9324 5.81715L11.7956 5.75565ZM5.75977 17.3587V17.5087H5.84057L5.88503 17.4413L5.75977 17.3587ZM2.34577 17.3587H2.19577V17.5087H2.34577V17.3587ZM8.66395 15.0851L8.72829 15.2206L8.90249 15.1379L8.77946 14.9894L8.66395 15.0851ZM10.6362 6.46788L10.6825 6.61055L10.8348 6.56109L10.7755 6.41235L10.6362 6.46788ZM6.78481 11.7125L6.93229 11.7398L6.95267 11.6299L6.85314 11.579L6.78481 11.7125ZM6.69441 12.2001L6.81508 12.2892L6.8356 12.2615L6.8419 12.2275L6.69441 12.2001ZM5.45205 12.9916L5.51626 13.1271L5.45205 12.9916ZM6.21442 20.6416H6.06442V20.7916H6.21442V20.6416ZM9.32069 16.2745L9.3849 16.4101L9.32069 16.2745ZM10.5631 15.4831L10.6837 15.5722L10.7043 15.5444L10.7106 15.5104L10.5631 15.4831ZM10.6535 14.9954L10.8009 15.0228L10.8213 14.9128L10.7218 14.8619L10.6535 14.9954ZM12.9655 14.9818L12.8956 14.8491L12.7978 14.9006L12.818 15.0092L12.9655 14.9818ZM13.0684 15.5363L12.921 15.5636L12.9283 15.603L12.9542 15.6335L13.0684 15.5363ZM14.2689 16.2747L14.3331 16.1391L14.2689 16.2747ZM17.3754 20.6416V20.7916H17.5254V20.6416H17.3754ZM17.8302 17.3587L17.705 17.4413L17.7495 17.5087H17.8302V17.3587ZM14.9261 15.0855L14.8105 14.9899L14.6877 15.1384L14.8617 15.221L14.9261 15.0855ZM21.2449 17.3587V17.5087H21.3949V17.3587H21.2449ZM18.1385 12.992L18.2027 12.8564L18.1385 12.992ZM16.938 12.2536L16.7905 12.281L16.7978 12.3203L16.8238 12.3508L16.938 12.2536ZM16.835 11.6991L16.7651 11.5664L16.6674 11.6179L16.6876 11.7265L16.835 11.6991ZM12.9547 6.46811L12.8154 6.41258L12.7561 6.5613L12.9084 6.61077L12.9547 6.46811ZM18.9112 11.8984C19.7206 10.9196 20.1949 9.59008 20.1949 8.17624H19.8949C19.8949 9.52484 19.4421 10.7857 18.68 11.7072L18.9112 11.8984ZM22.7409 17.3587C22.7409 15.4811 22.1218 14.2188 21.319 13.3435C20.5205 12.4728 19.5478 11.9938 18.8599 11.6673L18.7313 11.9383C19.4172 12.2639 20.3422 12.7223 21.0979 13.5462C21.8493 14.3656 22.4409 15.5553 22.4409 17.3587H22.7409ZM22.7409 18.7171V17.3587H22.4409V18.7171H22.7409ZM18.4583 18.8671H22.5909V18.5671H18.4583V18.8671ZM18.8714 20.6416C18.8714 19.8933 18.7717 19.243 18.602 18.6742L18.3145 18.76C18.4754 19.2991 18.5714 19.9203 18.5714 20.6416H18.8714ZM18.8714 22V20.6416H18.5714V22H18.8714ZM4.86865 22.15H18.7214V21.85H4.86865V22.15ZM4.71865 20.6416V22H5.01865V20.6416H4.71865ZM4.98801 18.6742C4.81827 19.243 4.71865 19.8933 4.71865 20.6416H5.01865C5.01865 19.9203 5.11461 19.2991 5.27548 18.76L4.98801 18.6742ZM1 18.8671H5.13175V18.5671H1V18.8671ZM0.85 17.3587V18.7171H1.15V17.3587H0.85ZM4.73099 11.6671C4.04311 11.9936 3.07044 12.4726 2.27192 13.3433C1.46915 14.2186 0.85 15.4809 0.85 17.3587H1.15C1.15 15.5551 1.7416 14.3654 2.49302 13.546C3.2487 12.722 4.17368 12.2637 4.85962 11.9381L4.73099 11.6671ZM3.3962 8.17624C3.3962 9.59321 3.87011 10.9208 4.67979 11.8983L4.91082 11.7069C4.14864 10.7868 3.6962 9.52806 3.6962 8.17624H3.3962ZM7.92647 2.85C5.40568 2.85 3.3962 5.26372 3.3962 8.17624H3.6962C3.6962 5.38049 5.61638 3.15 7.92647 3.15V2.85ZM11.9324 5.69415C11.1776 4.01516 9.67346 2.85 7.92647 2.85V3.15C9.53045 3.15 10.9413 4.22115 11.6588 5.81715L11.9324 5.69415ZM15.6647 2.85C13.9177 2.85 12.4135 4.01516 11.6588 5.69415L11.9324 5.81715C12.6499 4.22115 14.0607 3.15 15.6647 3.15V2.85ZM20.1949 8.17624C20.1949 5.26372 18.1852 2.85 15.6647 2.85V3.15C17.9745 3.15 19.8949 5.3805 19.8949 8.17624H20.1949ZM5.75977 17.2087H2.34577V17.5087H5.75977V17.2087ZM8.59962 14.9496C7.75743 15.3494 6.48976 15.9783 5.63452 17.2762L5.88503 17.4413C6.69047 16.2189 7.88826 15.6194 8.72829 15.2206L8.59962 14.9496ZM7.26485 11.4589C7.26485 12.8759 7.73875 14.2035 8.54845 15.1808L8.77946 14.9894C8.01729 14.0695 7.56485 12.8108 7.56485 11.4589H7.26485ZM10.5899 6.32522C8.66261 6.95105 7.26485 9.02641 7.26485 11.4589H7.56485C7.56485 9.13178 8.90081 7.18912 10.6825 6.61055L10.5899 6.32522ZM7.92647 4.50813C9.03471 4.50813 10.0142 5.31253 10.4968 6.52342L10.7755 6.41235C10.2618 5.1234 9.19217 4.20813 7.92647 4.20813V4.50813ZM5.04198 8.17601C5.04198 6.11651 6.36389 4.50813 7.92647 4.50813V4.20813C6.13762 4.20813 4.74198 6.01873 4.74198 8.17601H5.04198ZM6.85314 11.579C5.80357 11.0419 5.04198 9.73235 5.04198 8.17601H4.74198C4.74198 9.82087 5.54686 11.2475 6.71648 11.846L6.85314 11.579ZM6.8419 12.2275L6.93229 11.7398L6.63732 11.6852L6.54693 12.1728L6.8419 12.2275ZM5.51626 13.1271C5.78712 12.9988 6.04687 12.876 6.26766 12.7452C6.48791 12.6147 6.68225 12.4691 6.81508 12.2892L6.57375 12.111C6.47601 12.2434 6.32175 12.3644 6.11476 12.4871C5.9083 12.6094 5.66216 12.7261 5.38785 12.856L5.51626 13.1271ZM2.49577 17.3587C2.49577 15.9456 2.92943 15.048 3.5125 14.4266C4.10154 13.7988 4.85224 13.4416 5.51626 13.1271L5.38785 12.856C4.72974 13.1677 3.9273 13.546 3.29373 14.2213C2.6542 14.9029 2.19577 15.8758 2.19577 17.3587H2.49577ZM6.21442 20.7916H11.8346V20.4916H6.21442V20.7916ZM9.25649 16.139C8.59838 16.4507 7.79595 16.8291 7.16237 17.5043C6.52285 18.1859 6.06442 19.1588 6.06442 20.6416H6.36442C6.36442 19.2286 6.79807 18.331 7.38115 17.7096C7.97018 17.0818 8.72089 16.7246 9.3849 16.4101L9.25649 16.139ZM10.4424 15.394C10.3447 15.5263 10.1904 15.6474 9.9834 15.77C9.77694 15.8923 9.5308 16.009 9.25649 16.139L9.3849 16.4101C9.65577 16.2818 9.91552 16.1589 10.1363 16.0281C10.3566 15.8976 10.5509 15.752 10.6837 15.5722L10.4424 15.394ZM10.506 14.9681L10.4156 15.4557L10.7106 15.5104L10.8009 15.0228L10.506 14.9681ZM8.61062 11.4589C8.61062 13.1038 9.41551 14.5304 10.5851 15.1289L10.7218 14.8619C9.67222 14.3248 8.91062 13.0153 8.91062 11.4589H8.61062ZM11.7951 7.49105C10.0063 7.49105 8.61062 9.30165 8.61062 11.4589H8.91062C8.91062 9.39943 10.2325 7.79105 11.7951 7.79105V7.49105ZM14.9796 11.4589C14.9796 9.30165 13.584 7.49105 11.7951 7.49105V7.79105C13.3577 7.79105 14.6796 9.39943 14.6796 11.4589H14.9796ZM13.0354 15.1146C14.189 14.5072 14.9796 13.0894 14.9796 11.4589H14.6796C14.6796 13.0016 13.9315 14.3037 12.8956 14.8491L13.0354 15.1146ZM13.2159 15.5089L13.113 14.9544L12.818 15.0092L12.921 15.5636L13.2159 15.5089ZM14.3331 16.1391C14.0747 16.0168 13.8411 15.906 13.6419 15.7911C13.4422 15.6759 13.2876 15.5623 13.1827 15.439L12.9542 15.6335C13.0918 15.795 13.2805 15.929 13.4919 16.051C13.7038 16.1732 13.9492 16.2893 14.2047 16.4102L14.3331 16.1391ZM17.5254 20.6416C17.5254 19.1588 17.0669 18.1859 16.4274 17.5043C15.7937 16.8291 14.9913 16.4508 14.3331 16.1391L14.2047 16.4102C14.8688 16.7247 15.6195 17.0819 16.2086 17.7096C16.7917 18.331 17.2254 19.2286 17.2254 20.6416H17.5254ZM11.8346 20.7916H17.3754V20.4916H11.8346V20.7916ZM17.9555 17.2762C17.1002 15.9785 15.8323 15.3496 14.9904 14.95L14.8617 15.221C15.7015 15.6196 16.8996 16.2192 17.705 17.4413L17.9555 17.2762ZM21.2449 17.2087H17.8302V17.5087H21.2449V17.2087ZM18.0743 13.1276C18.7384 13.442 19.4891 13.7992 20.0782 14.4269C20.6613 15.0482 21.0949 15.9457 21.0949 17.3587H21.3949C21.3949 15.8759 20.9365 14.9031 20.2969 14.2216C19.6633 13.5464 18.8608 13.1681 18.2027 12.8564L18.0743 13.1276ZM16.8238 12.3508C16.9613 12.5123 17.1501 12.6463 17.3615 12.7683C17.5734 12.8905 17.8188 13.0066 18.0743 13.1276L18.2027 12.8564C17.9443 12.7341 17.7107 12.6234 17.5114 12.5084C17.3117 12.3932 17.1572 12.2796 17.0522 12.1563L16.8238 12.3508ZM16.6876 11.7265L16.7905 12.281L17.0855 12.2262L16.9825 11.6718L16.6876 11.7265ZM18.5492 8.17601C18.5492 9.71888 17.8011 11.0208 16.7651 11.5664L16.9049 11.8319C18.0586 11.2242 18.8492 9.80672 18.8492 8.17601H18.5492ZM15.6647 4.50813C17.2275 4.50813 18.5492 6.1165 18.5492 8.17601H18.8492C18.8492 6.01874 17.4537 4.20813 15.6647 4.20813V4.50813ZM13.0941 6.52363C13.5767 5.31254 14.5564 4.50813 15.6647 4.50813V4.20813C14.399 4.20813 13.3291 5.1234 12.8154 6.41258L13.0941 6.52363ZM16.3254 11.4589C16.3254 9.02641 14.9279 6.95152 13.0011 6.32545L12.9084 6.61077C14.6897 7.18956 16.0254 9.13178 16.0254 11.4589H16.3254ZM15.0417 15.1811C15.851 14.2023 16.3254 12.8728 16.3254 11.4589H16.0254C16.0254 12.8075 15.5725 14.0684 14.8105 14.9899L15.0417 15.1811Z" fill="#3F85FB"/>
</svg>
