<svg width="24" height="24" viewBox="0 0 24 24" fill="none" xmlns="http://www.w3.org/2000/svg">
<path fill-rule="evenodd" clip-rule="evenodd" d="M12.2884 17.0897L21.4067 7.97146C22.1984 7.17978 22.1984 5.89156 21.4032 5.0964L19.9032 3.59637C19.1115 2.80121 17.8267 2.80121 17.0316 3.59637L7.91332 12.7146L7.56609 15.8536C7.4654 16.7703 8.23972 17.5376 9.14946 17.4369L12.2884 17.0897ZM17.0802 13.8674L15.9691 14.9786C15.917 15.0306 15.8892 15.1001 15.8892 15.173V19.1141H3.6667V6.89158H12.0523C12.1287 6.89158 12.1981 6.8638 12.2502 6.81171L13.3614 5.70058C13.535 5.52349 13.41 5.22487 13.1634 5.22487H3.6667C2.74654 5.22487 2 5.97142 2 6.89158V19.1141C2 20.0342 2.74654 20.7808 3.6667 20.7808H15.8892C16.8093 20.7808 17.5559 20.0342 17.5559 19.1141V14.0653C17.5559 13.8153 17.2538 13.6938 17.0802 13.8674ZM17.976 9.0444L15.9586 7.027L9.50711 13.482L9.25363 15.7494L11.521 15.4959L17.976 9.0444ZM18.7261 4.77695L20.2261 6.27698C20.3685 6.41934 20.3685 6.64852 20.2296 6.79435L19.1566 7.86729L17.1392 5.84989L18.2122 4.77695C18.351 4.63458 18.5837 4.63458 18.7261 4.77695Z" fill="#3F85FB"/>
</svg>
