<svg width="24" height="24" viewBox="0 0 24 24" fill="none" xmlns="http://www.w3.org/2000/svg">
<mask id="mask0_0_993" style="mask-type:alpha" maskUnits="userSpaceOnUse" x="2" y="2" width="20" height="20">
<path fill-rule="evenodd" clip-rule="evenodd" d="M2 2H22V22H2V2Z" fill="white"/>
</mask>
<g mask="url(#mask0_0_993)">
<path fill-rule="evenodd" clip-rule="evenodd" d="M3.39326 20.6049H20.6022V19.6926H3.39326V20.6049ZM5.75551 18.2894H18.2517V17.3779H5.75551V18.2894ZM9.21618 8.50963C9.21708 7.7357 9.51281 7.01929 10.0503 6.49345C10.5897 5.96581 11.3106 5.68986 12.0908 5.69974C13.5281 5.72851 14.756 6.9339 14.773 8.33165C14.7946 10.151 14.7901 12.0027 14.7865 13.7932C14.7847 14.515 14.7829 15.2368 14.7793 15.9721H9.21528L9.21438 13.6881C9.21438 11.9622 9.21348 10.2355 9.21618 8.50963ZM16.1663 8.47727C16.1609 6.58244 14.9258 4.96986 13.0939 4.46379C11.9281 4.14019 10.6822 4.34783 9.67191 5.02918C8.66157 5.71143 8.00449 6.79008 7.86607 7.98918C7.84539 8.17435 7.83371 8.3739 7.83281 8.59952C7.83101 10.409 7.83191 12.2202 7.83191 14.0314V15.9721H6.89798V8.56806C6.89978 5.95682 8.69753 3.84536 11.2701 3.43188C12.5483 3.22693 13.9011 3.56671 14.9942 4.36132C16.0863 5.15592 16.8252 6.34064 17.0229 7.61255C17.0733 7.93435 17.0975 8.22379 17.0984 8.49794C17.1029 10.3991 17.1029 12.3002 17.102 14.2013V15.9676H16.1681L16.169 13.6413C16.1699 11.92 16.1717 10.1986 16.1663 8.47727ZM19.6476 18.3011V15.9874H18.4854L18.4863 13.5586C18.4872 11.8768 18.4881 10.195 18.4845 8.51323C18.4782 5.86334 16.9115 3.50109 14.4917 2.49525C12.7847 1.78514 10.8476 1.83997 9.17573 2.64896C7.50472 3.45884 6.25708 4.94828 5.75461 6.73615C5.59371 7.30873 5.51281 7.92266 5.51371 8.55907C5.51461 10.3793 5.51461 12.2004 5.51461 14.0197V15.9784H4.36045V18.2993H2V22H22V18.3011H19.6476Z" fill="#3F85FB"/>
<path fill-rule="evenodd" clip-rule="evenodd" d="M10.276 9.04812H13.7276V7.91284H10.276V9.04812Z" fill="#3F85FB"/>
<path fill-rule="evenodd" clip-rule="evenodd" d="M10.2769 11.3708H13.7285V10.2346H10.2769V11.3708Z" fill="#3F85FB"/>
</g>
</svg>
