<svg width="24" height="24" viewBox="0 0 24 24" fill="none" xmlns="http://www.w3.org/2000/svg">
<path fill-rule="evenodd" clip-rule="evenodd" d="M12.8333 6.86636C13.8202 6.53531 14.5 5.62225 14.5 4.5C14.5 3.08333 13.4167 2 12 2C10.5833 2 9.5 3.08333 9.5 4.5C9.5 5.62225 10.1798 6.53532 11.1667 6.86636V11.1667H6.16667C4.75 11.1667 3.66667 12.25 3.66667 13.6667V17.1336C2.67984 17.4647 2 18.3778 2 19.5C2 20.9167 3.08333 22 4.5 22C5.91667 22 7 20.9167 7 19.5C7 18.3778 6.32016 17.4647 5.33333 17.1336V13.6667C5.33333 13.1667 5.66667 12.8333 6.16667 12.8333H11.1667V17.1336C10.1798 17.4647 9.5 18.3778 9.5 19.5C9.5 20.9167 10.5833 22 12 22C13.4167 22 14.5 20.9167 14.5 19.5C14.5 18.3778 13.8202 17.4647 12.8333 17.1336V12.8333H17.8333C18.3333 12.8333 18.6667 13.1667 18.6667 13.6667V17.1336C17.6798 17.4647 17 18.3778 17 19.5C17 20.9167 18.0833 22 19.5 22C20.9167 22 22 20.9167 22 19.5C22 18.3778 21.3202 17.4647 20.3333 17.1336V13.6667C20.3333 12.25 19.25 11.1667 17.8333 11.1667H12.8333V6.86636ZM12 5.33333C11.5 5.33333 11.1667 5 11.1667 4.5C11.1667 4 11.5 3.66667 12 3.66667C12.5 3.66667 12.8333 4 12.8333 4.5C12.8333 5 12.5 5.33333 12 5.33333ZM11.1667 19.5C11.1667 19.0002 11.4997 18.667 11.9993 18.6667H12C12.5 18.6667 12.8333 19 12.8333 19.5C12.8333 20 12.5 20.3333 12 20.3333C11.5 20.3333 11.1667 20 11.1667 19.5ZM4.49934 18.6667C3.99971 18.667 3.66667 19.0002 3.66667 19.5C3.66667 20 4 20.3333 4.5 20.3333C5 20.3333 5.33333 20 5.33333 19.5C5.33333 19 5 18.6667 4.5 18.6667H4.49934ZM19.5 18.6667H19.4993C18.9997 18.667 18.6667 19.0002 18.6667 19.5C18.6667 20 19 20.3333 19.5 20.3333C20 20.3333 20.3333 20 20.3333 19.5C20.3333 19 20 18.6667 19.5 18.6667Z" fill="#3F85FB"/>
</svg>
