<svg width="24" height="24" viewBox="0 0 24 24" fill="none" xmlns="http://www.w3.org/2000/svg">
<path fill-rule="evenodd" clip-rule="evenodd" d="M15.296 6.317H19.416C20.29 6.317 21 7.04 21 7.93V18.36C21 19.249 20.289 19.972 19.416 19.972H4.585C3.71 19.972 3 19.249 3 18.36V7.93C3 7.04 3.711 6.317 4.585 6.317H8.704V5.611C8.704 4.723 9.415 4 10.289 4H13.712C14.585 4 15.296 4.723 15.296 5.611V6.317ZM10.163 6.317H13.839V5.485H10.162V6.317H10.163ZM4.458 12.113H19.542V8.147C19.542 7.957 19.391 7.803 19.202 7.803H4.798C4.61 7.803 4.458 7.957 4.458 8.147V12.113ZM19.202 18.487C19.391 18.487 19.543 18.333 19.543 18.143V18.142V13.598H14.155V15.028C14.1567 15.1957 14.0227 15.3333 13.855 15.336H10.146C9.98 15.336 9.845 15.198 9.845 15.028V13.597H4.458V18.142C4.4572 18.2329 4.49261 18.3203 4.5564 18.3851C4.62019 18.4498 4.70712 18.4865 4.798 18.487H19.202Z" fill="#3F85FB"/>
</svg>
