<svg width="24" height="24" viewBox="0 0 24 24" fill="none" xmlns="http://www.w3.org/2000/svg">
<path fill-rule="evenodd" clip-rule="evenodd" d="M6.98301 3.76595C6.98301 3.34468 7.32769 3 7.74896 3C8.17023 3 8.51491 3.34468 8.51491 3.76595V4.2638C8.47663 4.64679 8.13195 4.99147 7.74896 4.99147C7.32769 4.99147 6.98301 4.64679 6.98301 4.22552V3.76595ZM20.0426 19.4681H20.2724C20.6937 19.4681 21.0383 19.8128 21.0383 20.2341C21 20.6553 20.6554 21 20.2341 21H3.76595C3.34468 21 3 20.6553 3 20.2341C3 19.8128 3.34468 19.4681 3.76598 19.4681H3.95746V9.24255C3.95746 8.82128 4.30214 8.4766 4.72341 8.4766H6.98301V6.71488C6.98301 6.29361 7.3277 5.94893 7.74896 5.94893C8.17023 5.94893 8.51491 6.29361 8.51491 6.71488V8.4766H11.0426V6.71488C11.0426 6.29358 11.3873 5.9489 11.8086 5.94893C12.2298 5.94893 12.5745 6.29361 12.5745 6.71488V8.4766H15.1405V6.71488C15.1405 6.29361 15.4852 5.94893 15.9064 5.94893C16.3277 5.94893 16.6724 6.29361 16.6724 6.71488V8.4766H19.2767C19.6979 8.4766 20.0426 8.82128 20.0426 9.24255V19.4681ZM5.45108 19.4681H18.5107V9.97022H5.45108V19.4681ZM13.9149 11.0808C14.566 11.2723 15.4085 11.8851 15.6766 12.8426C15.8298 13.4553 15.8298 14.4128 14.8724 15.5617C13.2256 17.4766 12.4979 18.0511 12.1532 18.2426H12.0766C11.9234 18.2809 11.8085 18.2809 11.8085 18.2809C11.5404 18.2809 11.1192 18.166 8.82128 15.5617C7.82554 14.4511 7.82554 13.4937 8.01702 12.8809C8.28512 11.9234 9.12769 11.3106 9.77874 11.1192C10.4298 10.9277 11.1192 11.0426 11.8085 11.4638C12.4979 11.0043 13.2639 10.8511 13.9149 11.0808ZM11.8086 16.5575C12.3064 16.0979 13.149 15.217 13.7234 14.566C14.0298 14.2213 14.3362 13.7234 14.2213 13.2638C14.1064 12.8808 13.7617 12.6127 13.4553 12.5362C13.2256 12.4596 12.8426 12.5745 12.4596 12.8808C12.4213 12.8808 12.4213 12.9192 12.4213 12.9192C12.1532 13.2255 11.6553 13.2638 11.3489 12.9957C10.966 12.6511 10.5447 12.4596 10.2383 12.5745C9.93195 12.6894 9.54895 12.9575 9.47237 13.3021C9.35748 13.7617 9.66388 14.2596 9.97026 14.6043C10.5064 15.2553 11.3107 16.0596 11.8086 16.5575ZM11.8468 3C11.4256 3 11.0809 3.34468 11.0809 3.76595V4.22552C11.0809 4.64679 11.4256 4.99147 11.8468 4.99147C12.2298 4.99147 12.5745 4.64679 12.6128 4.2638V3.76595C12.6128 3.34468 12.2681 3 11.8468 3ZM15.1788 3.76595C15.1788 3.34468 15.5234 3 15.9447 3C16.366 3 16.7107 3.34468 16.7107 3.76595V4.2638C16.6724 4.64679 16.3277 4.99147 15.9447 4.99147C15.5234 4.99147 15.1788 4.64679 15.1788 4.22552V3.76595Z" fill="#3F85FB"/>
</svg>
