<svg width="24" height="24" viewBox="0 0 24 24" fill="none" xmlns="http://www.w3.org/2000/svg">
<path fill-rule="evenodd" clip-rule="evenodd" d="M19.9375 6.125H17.8125V4.79689C17.8125 4.357 17.4555 4 17.0156 4C16.5757 4 16.2187 4.357 16.2187 4.79689V6.125H8.78122V4.79689C8.78125 4.357 8.42425 4 7.98439 4C7.54453 4 7.1875 4.357 7.1875 4.79689V6.125H5.0625C4.476 6.125 4 6.60047 4 7.1875V19.9375C4 20.5245 4.476 21 5.0625 21H19.9375C20.524 21 21 20.5245 21 19.9375V7.1875C21 6.60047 20.524 6.125 19.9375 6.125ZM19.4062 19.4062H5.59375V10.9062H19.4062V19.4062ZM5.59375 9.3125H19.4062V7.71875H5.59375V9.3125Z" fill="#3F85FB"/>
</svg>
