<svg width="57" height="42" viewBox="0 0 57 42" fill="none" xmlns="http://www.w3.org/2000/svg">
<mask id="mask0_283_2723" style="mask-type:alpha" maskUnits="userSpaceOnUse" x="0" y="0" width="57" height="42">
<path fill-rule="evenodd" clip-rule="evenodd" d="M0 0H57V42H0V0Z" fill="white"/>
</mask>
<g mask="url(#mask0_283_2723)">
<path fill-rule="evenodd" clip-rule="evenodd" d="M49.0169 0.00295633C49.011 0.00295633 49.0051 0 49.0021 0H21.3031C19.0988 0 17.0905 0.899908 15.6491 2.34556C15.123 2.87415 15.123 3.7238 15.6491 4.25535C16.1717 4.77152 17.0091 4.77152 17.537 4.25831C17.5399 4.25831 17.5476 4.25535 17.5505 4.25535C18.516 3.28685 19.8369 2.69322 21.3031 2.69322H43.0222C41.7644 4.10931 41.005 5.96884 41.005 8.00871V33.9884C40.9997 36.9223 38.6224 39.3009 35.6971 39.3039C32.767 39.3009 30.3932 36.9223 30.3856 33.9884C30.3856 33.6259 30.2462 33.2907 29.9941 33.0353C29.739 32.7798 29.4053 32.6403 29.044 32.6403H15.9952V26.5709C15.9952 25.8254 15.3976 25.2258 14.65 25.2258C13.909 25.2258 13.3037 25.8254 13.3037 26.5709V32.6403H1.34497C0.990669 32.6403 0.643458 32.7858 0.394268 33.0353C0.142717 33.2877 -0.000183105 33.6289 -0.000183105 33.9884C-0.000183105 38.4099 3.58118 42.0001 7.99986 42.0001H35.6971C40.1128 42.0001 43.6936 38.4099 43.6936 33.9884L43.6965 9.3568H55.6558C56.0143 9.3568 56.3509 9.21726 56.606 8.95888C56.861 8.70641 57.0004 8.37057 57.0004 8.00576C57.0004 3.58958 53.4267 0.00886901 49.0169 0.00295633Z" fill="#3F85FB"/>
</g>
<path fill-rule="evenodd" clip-rule="evenodd" d="M28.0136 11H36.9913C37.5464 11 38 10.5528 38 10.0003C38 9.44723 37.5464 9 36.9913 9H28.0136C27.4536 9 27 9.44723 27 10.0003C27 10.5528 27.4536 11 28.0136 11Z" fill="#3F85FB"/>
<path fill-rule="evenodd" clip-rule="evenodd" d="M27.273 15.6703C27.4597 15.8712 27.7176 16 28.0118 16H36.984C37.547 16 38 15.5446 38 14.9937C38 14.4429 37.547 14 36.984 14H28.0118C27.6584 14 27.3624 14.1884 27.1806 14.4578C27.0743 14.6164 27 14.7964 27 14.9937C27 15.2572 27.1075 15.4939 27.273 15.6703Z" fill="#3F85FB"/>
<path fill-rule="evenodd" clip-rule="evenodd" d="M27.0272 20.1406C27.0955 20.6192 27.4991 21 28.0054 21H36.9897C37.5492 21 38 20.5536 38 20.003C38 19.4523 37.5492 19 36.9897 19H31.2967H28.0054C27.4502 19 27 19.4523 27 20.003C27 20.0507 27.0242 20.09 27.0272 20.1406Z" fill="#3F85FB"/>
<path fill-rule="evenodd" clip-rule="evenodd" d="M24.8221 24.8063C25.0061 24.6183 25.0518 24.3271 24.9383 24.0889L21.1393 16L16 21.2001L24.1109 24.9408C24.3516 25.0557 24.6409 24.9994 24.8221 24.8063Z" fill="#3F85FB"/>
<path fill-rule="evenodd" clip-rule="evenodd" d="M4 9.33524L14.6607 20L20 14.6562L9.33925 4L4 9.33524Z" fill="#3F85FB"/>
</svg>
