<svg width="24" height="24" viewBox="0 0 24 24" fill="none" xmlns="http://www.w3.org/2000/svg">
<path fill-rule="evenodd" clip-rule="evenodd" d="M22.5646 4.29931L20.7007 2.43542C20.1201 1.85486 19.1767 1.85486 18.5924 2.43542L17.2403 3.7875C17.0951 3.93264 17.0951 4.16944 17.2403 4.31458L20.6854 7.75972C20.8306 7.90486 21.0674 7.90486 21.2125 7.75972L22.5646 6.40764C23.1451 5.82326 23.1451 4.87986 22.5646 4.29931ZM16.3771 5.17396L19.8222 8.6191C19.9674 8.76424 19.9674 9.00104 19.8222 9.14618L11.4806 17.4878L7.93611 17.8813C7.4625 17.9347 7.06146 17.5337 7.11493 17.0601L7.50833 13.5156L15.85 5.17396C15.9951 5.02882 16.2319 5.02882 16.3771 5.17396ZM15.6667 19.1073V15.2191C15.6667 15.0969 15.7163 14.9823 15.8003 14.8944L17.3281 13.3667C17.6184 13.0802 18.1111 13.2826 18.1111 13.6913V19.7184C18.1111 20.7306 17.2899 21.5517 16.2778 21.5517H2.83333C1.82118 21.5517 1 20.7306 1 19.7184V6.27396C1 5.26181 1.82118 4.44062 2.83333 4.44062H13.7493C14.158 4.44062 14.3642 4.93333 14.074 5.22361L12.5462 6.75139C12.4583 6.83542 12.3438 6.88507 12.2215 6.88507H3.44444V19.1073H15.6667Z" fill="#3F85FB"/>
</svg>
