<svg width="20" height="20" viewBox="0 0 20 20" fill="none" xmlns="http://www.w3.org/2000/svg">
<path fill-rule="evenodd" clip-rule="evenodd" d="M15.1656 12.8021L19.5105 17.1469C20.1632 17.7996 20.1632 18.8578 19.5105 19.5105C18.8577 20.1632 17.7995 20.1632 17.1468 19.5105L12.8019 15.1656C12.7888 15.1525 12.778 15.1382 12.7672 15.1238C12.7589 15.1128 12.7506 15.1018 12.7412 15.0913C11.4444 15.9463 9.89205 16.4452 8.22254 16.4452C3.68133 16.4452 0 12.7638 0 8.22262C0 3.68141 3.68141 0 8.22262 0C12.7638 0 16.4452 3.68141 16.4452 8.2227C16.4452 9.89213 15.9463 11.4445 15.0913 12.7414C15.1018 12.7507 15.1127 12.759 15.1237 12.7672C15.1381 12.7781 15.1525 12.789 15.1656 12.8021ZM2.85044 8.22262C2.85044 11.1896 5.2556 13.5947 8.22262 13.5947C11.1895 13.5947 13.5947 11.1896 13.5947 8.22262C13.5947 5.25568 11.1895 2.85044 8.22262 2.85044C5.25568 2.85044 2.85044 5.2556 2.85044 8.22262Z" fill="white"/>
</svg>
