<svg width="24" height="24" viewBox="0 0 24 24" fill="none" xmlns="http://www.w3.org/2000/svg">
<path fill-rule="evenodd" clip-rule="evenodd" d="M18.077 13.123C18.289 13.335 20.161 15.209 20.567 15.676C21.139 16.333 21.031 17.126 20.877 17.49L20.814 17.61L20.744 17.72C20.102 18.721 19.303 19.966 16.326 20.034H16.304C13.153 20.034 10.138 17.461 8.16 15.294C6.256 13.44 3.997 10.621 4 7.69201C4.06798 4.70121 5.31301 3.90065 6.3128 3.25778L6.314 3.25701L6.543 3.12301C6.612 3.09401 6.862 3.00001 7.202 3.00001C7.62794 2.99834 8.03967 3.15314 8.359 3.43501C8.7709 3.79276 10.2774 5.29237 10.7728 5.78553C10.8355 5.84791 10.882 5.89419 10.908 5.92001C11.416 6.36501 11.905 7.32701 11.228 8.23501C10.958 8.59701 10.486 9.13001 10.096 9.55701L10.177 9.71001C10.947 10.973 11.765 11.953 12.677 12.703C13.207 13.139 13.99 13.612 14.487 13.898C14.873 13.547 15.405 13.076 15.767 12.806C16.0426 12.5944 16.3796 12.4782 16.727 12.475C17.439 12.475 17.943 12.974 18.077 13.123ZM19.447 16.887L19.461 16.864C19.4672 16.8 19.4466 16.7362 19.404 16.688C19.083 16.32 17.538 14.765 16.97 14.197L16.923 14.146C16.8694 14.0877 16.802 14.0437 16.727 14.018C16.727 14.0183 16.7255 14.0192 16.7226 14.0209C16.7167 14.0242 16.7051 14.0309 16.689 14.043C16.316 14.321 15.614 14.952 15.126 15.408L14.723 15.784L14.237 15.525L14.2333 15.523C14.128 15.4664 12.6294 14.6608 11.698 13.895C10.645 13.029 9.713 11.916 8.848 10.493L8.826 10.453L8.221 9.31301L8.595 8.91101C9.254 8.20301 9.759 7.62501 9.992 7.31301C10.013 7.28401 10.017 7.27101 10.017 7.27101C9.98772 7.19424 9.94039 7.12564 9.879 7.07101L9.838 7.03101C9.269 6.46301 7.715 4.91901 7.346 4.59801C7.29553 4.55472 7.2288 4.5354 7.163 4.54501L7.147 4.55501C6.278 5.11301 5.592 5.55401 5.542 7.71001C5.541 9.56501 6.857 11.877 9.251 14.205L9.283 14.238C10.731 15.827 13.57 18.493 16.304 18.493V19.263L16.307 18.492C18.447 18.443 18.888 17.757 19.447 16.887Z" fill="#3F85FB"/>
<path d="M20.567 15.676L20.4538 15.7744L20.4539 15.7745L20.567 15.676ZM18.077 13.123L17.9653 13.2235L17.9709 13.2291L18.077 13.123ZM20.877 17.49L21.0103 17.56L21.0151 17.5485L20.877 17.49ZM20.814 17.61L20.941 17.6908L20.9468 17.6797L20.814 17.61ZM20.744 17.72L20.8703 17.801L20.8706 17.8005L20.744 17.72ZM16.326 20.034V20.1841L16.3294 20.184L16.326 20.034ZM8.16 15.294L8.27098 15.1927L8.26465 15.1865L8.16 15.294ZM4 7.69201L3.85001 7.6886L3.85 7.69186L4 7.69201ZM6.3128 3.25778L6.39393 3.38395L6.39394 3.38395L6.3128 3.25778ZM6.314 3.25701L6.23818 3.12743L6.23287 3.13085L6.314 3.25701ZM6.543 3.12301L6.48488 2.98473L6.47577 2.98856L6.46725 2.99355L6.543 3.12301ZM7.202 3.00001V3.15001L7.20259 3.15001L7.202 3.00001ZM8.359 3.43501L8.25973 3.54747L8.26064 3.54826L8.359 3.43501ZM10.7728 5.78553L10.8786 5.67922L10.7728 5.78553ZM10.908 5.92001L10.8022 6.02674L10.8092 6.03285L10.908 5.92001ZM11.228 8.23501L11.3482 8.32469L11.3483 8.32467L11.228 8.23501ZM10.096 9.55701L9.98525 9.45585L9.91401 9.53385L9.96343 9.6272L10.096 9.55701ZM10.177 9.71001L10.0442 9.78033L10.0489 9.7881L10.177 9.71001ZM12.677 12.703L12.7723 12.5872L12.7723 12.5872L12.677 12.703ZM14.487 13.898L14.4122 14.028L14.507 14.0826L14.5879 14.009L14.487 13.898ZM15.767 12.806L15.8567 12.9263L15.8584 12.925L15.767 12.806ZM16.727 12.475V12.325L16.7256 12.325L16.727 12.475ZM19.461 16.864L19.5891 16.942L19.607 16.9127L19.6103 16.8785L19.461 16.864ZM19.447 16.887L19.5732 16.9681L19.5751 16.965L19.447 16.887ZM19.404 16.688L19.291 16.7866L19.2916 16.7873L19.404 16.688ZM16.97 14.197L16.8596 14.2987L16.8639 14.3031L16.97 14.197ZM16.923 14.146L16.8126 14.2475L16.8127 14.2477L16.923 14.146ZM16.727 14.018L16.7755 13.8761L16.577 13.8082V14.018H16.727ZM16.7226 14.0209L16.6479 13.8908L16.6479 13.8908L16.7226 14.0209ZM16.689 14.043L16.7786 14.1633L16.779 14.163L16.689 14.043ZM15.126 15.408L15.2283 15.5177L15.2284 15.5176L15.126 15.408ZM14.723 15.784L14.6525 15.9164L14.747 15.9668L14.8253 15.8937L14.723 15.784ZM14.237 15.525L14.1659 15.6571L14.1665 15.6574L14.237 15.525ZM14.2333 15.523L14.3043 15.3909L14.3043 15.3909L14.2333 15.523ZM11.698 13.895L11.6027 14.0109L11.6027 14.0109L11.698 13.895ZM8.848 10.493L8.71645 10.5654L8.71983 10.5709L8.848 10.493ZM8.826 10.453L8.69349 10.5233L8.69457 10.5253L8.826 10.453ZM8.221 9.31301L8.11118 9.21084L8.03845 9.28902L8.08851 9.38333L8.221 9.31301ZM8.595 8.91101L8.48521 8.80882L8.48518 8.80884L8.595 8.91101ZM9.992 7.31301L10.1122 7.40278L10.1135 7.40099L9.992 7.31301ZM10.017 7.27101L10.1604 7.31512L10.1756 7.26579L10.1572 7.21755L10.017 7.27101ZM9.879 7.07101L9.77414 7.17849L9.77928 7.18307L9.879 7.07101ZM9.838 7.03101L9.73202 7.13718L9.73325 7.13838L9.838 7.03101ZM7.346 4.59801L7.44445 4.48484L7.44366 4.48416L7.346 4.59801ZM7.163 4.54501L7.14131 4.39659L7.11018 4.40114L7.0835 4.41781L7.163 4.54501ZM7.147 4.55501L7.0675 4.4278L7.06596 4.42879L7.147 4.55501ZM5.542 7.71001L5.392 7.70653L5.392 7.70993L5.542 7.71001ZM9.251 14.205L9.35873 14.1005L9.35558 14.0975L9.251 14.205ZM9.283 14.238L9.39393 14.1369L9.39069 14.1336L9.283 14.238ZM16.304 18.493H16.454V18.343H16.304V18.493ZM16.304 19.263H16.154L16.454 19.2636L16.304 19.263ZM16.307 18.492L16.3036 18.3421L16.1576 18.3454L16.157 18.4914L16.307 18.492ZM20.6802 15.5776C20.2697 15.1055 18.3921 13.226 18.1831 13.0169L17.9709 13.2291C18.1859 13.444 20.0523 15.3126 20.4538 15.7744L20.6802 15.5776ZM21.0151 17.5485C21.1836 17.1503 21.3015 16.2912 20.6801 15.5775L20.4539 15.7745C20.9766 16.3749 20.8784 17.1017 20.7389 17.4316L21.0151 17.5485ZM20.9468 17.6797L21.0098 17.5597L20.7442 17.4203L20.6812 17.5403L20.9468 17.6797ZM20.8706 17.8005L20.9406 17.6905L20.6875 17.5295L20.6175 17.6395L20.8706 17.8005ZM16.3294 20.184C17.8389 20.1495 18.8133 19.816 19.4952 19.3508C20.1753 18.8868 20.5497 18.3008 20.8703 17.801L20.6177 17.639C20.2963 18.1402 19.9502 18.6772 19.3261 19.103C18.7038 19.5275 17.7901 19.8505 16.3226 19.8841L16.3294 20.184ZM16.304 20.184H16.326V19.884H16.304V20.184ZM8.04922 15.3951C9.04304 16.4839 10.3008 17.6786 11.7099 18.6021C13.118 19.5249 14.6883 20.184 16.304 20.184V19.884C14.7687 19.884 13.256 19.2567 11.8743 18.3512C10.4937 17.4464 9.25497 16.2711 8.27079 15.1929L8.04922 15.3951ZM3.85 7.69186C3.84846 9.19434 4.42663 10.6589 5.23716 11.9748C6.04824 13.2916 7.09819 14.4695 8.05536 15.4015L8.26465 15.1865C7.31781 14.2646 6.28626 13.106 5.49259 11.8175C4.69838 10.5281 4.14854 9.11869 4.15 7.69217L3.85 7.69186ZM6.23168 3.13162C5.73244 3.45263 5.14671 3.82771 4.68291 4.51011C4.21794 5.19423 3.8845 6.17232 3.85004 7.68861L4.14996 7.69542C4.18348 6.2209 4.50654 5.30331 4.93103 4.67874C5.35669 4.05244 5.89337 3.70581 6.39393 3.38395L6.23168 3.13162ZM6.23287 3.13085L6.23167 3.13162L6.39394 3.38395L6.39513 3.38318L6.23287 3.13085ZM6.46725 2.99355L6.23825 3.12755L6.38976 3.38648L6.61876 3.25248L6.46725 2.99355ZM7.202 2.85001C6.83546 2.85001 6.56504 2.95104 6.48488 2.98473L6.60112 3.2613C6.65896 3.23699 6.88855 3.15001 7.202 3.15001V2.85001ZM8.45827 3.32256C8.11138 3.01635 7.66412 2.84819 7.20141 2.85001L7.20259 3.15001C7.59177 3.14848 7.96797 3.28992 8.25974 3.54747L8.45827 3.32256ZM10.8786 5.67922C10.3862 5.18905 8.87429 3.68388 8.45736 3.32176L8.26064 3.54826C8.66751 3.90164 10.1686 5.39569 10.667 5.89184L10.8786 5.67922ZM11.0136 5.81349C10.9877 5.7878 10.9414 5.74167 10.8786 5.67922L10.667 5.89184C10.7296 5.95415 10.7762 6.00057 10.8024 6.02654L11.0136 5.81349ZM11.3483 8.32467C11.7158 7.83172 11.769 7.31738 11.658 6.86794C11.5485 6.42419 11.2804 6.04677 11.0068 5.80718L10.8092 6.03285C11.0437 6.23825 11.274 6.56434 11.3667 6.93984C11.458 7.30965 11.4172 7.7303 11.1077 8.14535L11.3483 8.32467ZM10.2068 9.65817C10.5964 9.23158 11.0732 8.69347 11.3482 8.32469L11.1078 8.14533C10.8428 8.50056 10.3756 9.02845 9.98525 9.45585L10.2068 9.65817ZM10.3096 9.63983L10.2286 9.48683L9.96343 9.6272L10.0444 9.7802L10.3096 9.63983ZM12.7723 12.5872C11.8761 11.8502 11.0685 10.8841 10.3051 9.63193L10.0489 9.7881C10.8255 11.0619 11.6539 12.0559 12.5817 12.8189L12.7723 12.5872ZM14.5618 13.768C14.065 13.4821 13.2917 13.0145 12.7723 12.5872L12.5817 12.8189C13.1223 13.2636 13.915 13.7419 14.4122 14.028L14.5618 13.768ZM15.6773 12.6858C15.3087 12.9607 14.7716 13.4365 14.3861 13.787L14.5879 14.009C14.9744 13.6576 15.5013 13.1913 15.8567 12.9263L15.6773 12.6858ZM16.7256 12.325C16.3456 12.3285 15.977 12.4556 15.6756 12.6871L15.8584 12.925C16.1081 12.7332 16.4135 12.6279 16.7284 12.625L16.7256 12.325ZM18.1885 13.0227C18.0488 12.8673 17.5065 12.325 16.727 12.325V12.625C17.3715 12.625 17.8373 13.0807 17.9655 13.2233L18.1885 13.0227ZM19.3329 16.786L19.3189 16.809L19.5751 16.965L19.5891 16.942L19.3329 16.786ZM19.2916 16.7873C19.3066 16.8043 19.3139 16.8269 19.3117 16.8495L19.6103 16.8785C19.6205 16.7731 19.5866 16.6681 19.5164 16.5887L19.2916 16.7873ZM16.8639 14.3031C17.4345 14.8737 18.9743 16.4236 19.291 16.7866L19.517 16.5894C19.1917 16.2164 17.6415 14.6563 17.0761 14.0909L16.8639 14.3031ZM16.8127 14.2477L16.8597 14.2987L17.0803 14.0954L17.0333 14.0444L16.8127 14.2477ZM16.6785 14.1599C16.7298 14.1775 16.7759 14.2076 16.8126 14.2475L17.0334 14.0445C16.9629 13.9677 16.8742 13.9098 16.7755 13.8761L16.6785 14.1599ZM16.7974 14.1509C16.7975 14.1508 16.8019 14.1483 16.8059 14.1458C16.8074 14.1449 16.8142 14.1406 16.822 14.1342C16.8256 14.1312 16.8346 14.1237 16.8439 14.112C16.8488 14.106 16.8561 14.096 16.8626 14.0823C16.869 14.0687 16.877 14.0465 16.877 14.018H16.577C16.577 13.9896 16.585 13.9674 16.5914 13.9539C16.5979 13.9402 16.6052 13.9303 16.6099 13.9243C16.6192 13.9128 16.628 13.9053 16.6314 13.9025C16.6388 13.8964 16.6452 13.8925 16.6459 13.8921C16.6484 13.8905 16.6506 13.8892 16.6479 13.8908L16.7974 14.1509ZM16.779 14.163C16.7838 14.1594 16.7876 14.1569 16.7903 14.1552C16.7929 14.1535 16.7949 14.1523 16.7974 14.1509L16.6479 13.8908C16.6397 13.8955 16.6221 13.9057 16.599 13.923L16.779 14.163ZM15.2284 15.5176C15.7171 15.0609 16.4133 14.4356 16.7786 14.1633L16.5994 13.9227C16.2187 14.2065 15.5109 14.8431 15.0236 15.2984L15.2284 15.5176ZM14.8253 15.8937L15.2283 15.5177L15.0237 15.2983L14.6207 15.6743L14.8253 15.8937ZM14.1665 15.6574L14.6525 15.9164L14.7935 15.6516L14.3075 15.3926L14.1665 15.6574ZM14.1622 15.6551L14.1659 15.6571L14.3081 15.3929L14.3043 15.3909L14.1622 15.6551ZM11.6027 14.0109C12.5472 14.7875 14.0589 15.5996 14.1623 15.6551L14.3043 15.3909C14.1971 15.3332 12.7115 14.5341 11.7933 13.7792L11.6027 14.0109ZM8.71983 10.5709C9.59169 12.0052 10.5342 13.1321 11.6027 14.0109L11.7933 13.7792C10.7558 12.926 9.83431 11.8268 8.97618 10.4151L8.71983 10.5709ZM8.69457 10.5253L8.71657 10.5653L8.97944 10.4207L8.95744 10.3807L8.69457 10.5253ZM8.08851 9.38333L8.69351 10.5233L8.9585 10.3827L8.3535 9.2427L8.08851 9.38333ZM8.48518 8.80884L8.11118 9.21084L8.33082 9.41519L8.70482 9.01319L8.48518 8.80884ZM9.87182 7.22326C9.64421 7.52804 9.14429 8.10073 8.48521 8.80882L8.7048 9.01321C9.36372 8.3053 9.8738 7.72199 10.1122 7.40277L9.87182 7.22326ZM10.017 7.27101C9.87364 7.2269 9.87365 7.22684 9.87367 7.22678C9.87368 7.22677 9.8737 7.22671 9.87371 7.22667C9.87373 7.22659 9.87376 7.22651 9.87378 7.22643C9.87383 7.22628 9.87388 7.22612 9.87393 7.22597C9.87402 7.22566 9.87412 7.22536 9.87422 7.22506C9.87441 7.22446 9.8746 7.22389 9.87479 7.22333C9.87516 7.22221 9.87553 7.22117 9.87588 7.22021C9.87658 7.21828 9.87723 7.21666 9.87778 7.21535C9.87888 7.21273 9.87961 7.21132 9.87969 7.21118C9.87982 7.21094 9.87747 7.21543 9.87051 7.22504L10.1135 7.40099C10.1275 7.3816 10.1377 7.36509 10.1451 7.3511C10.1488 7.34408 10.1518 7.33761 10.1543 7.33165C10.1556 7.32866 10.1567 7.3258 10.1577 7.32305C10.1582 7.32167 10.1587 7.32033 10.1591 7.31901C10.1593 7.31834 10.1596 7.31769 10.1598 7.31704C10.1599 7.31672 10.16 7.3164 10.1601 7.31608C10.1601 7.31592 10.1602 7.31576 10.1602 7.3156C10.1602 7.31552 10.1603 7.31544 10.1603 7.31536C10.1603 7.31532 10.1603 7.31526 10.1603 7.31524C10.1604 7.31518 10.1604 7.31512 10.017 7.27101ZM9.77928 7.18307C9.82268 7.22169 9.85615 7.27019 9.87685 7.32447L10.1572 7.21755C10.1193 7.11829 10.0581 7.02959 9.97872 6.95896L9.77928 7.18307ZM9.73325 7.13838L9.77425 7.17838L9.98375 6.96365L9.94275 6.92365L9.73325 7.13838ZM7.24755 4.71118C7.61151 5.0278 9.16024 6.56639 9.73203 7.13717L9.94398 6.92485C9.37777 6.35964 7.8185 4.81023 7.44445 4.48484L7.24755 4.71118ZM7.1847 4.69344C7.20758 4.69009 7.23079 4.69681 7.24835 4.71187L7.44366 4.48416C7.36027 4.41264 7.25001 4.3807 7.14131 4.39659L7.1847 4.69344ZM7.2265 4.68221L7.2425 4.67221L7.0835 4.41781L7.0675 4.42781L7.2265 4.68221ZM5.69196 7.71349C5.71664 6.64925 5.89813 6.031 6.16389 5.61386C6.43007 5.19605 6.79055 4.96216 7.22805 4.68123L7.06596 4.42879C6.63445 4.70587 6.21744 4.97147 5.91087 5.45267C5.60388 5.93453 5.41736 6.61478 5.39204 7.70654L5.69196 7.71349ZM9.35558 14.0975C6.96954 11.7772 5.69104 9.5024 5.692 7.71009L5.392 7.70993C5.39097 9.62763 6.74447 11.9768 9.14643 14.3126L9.35558 14.0975ZM9.39069 14.1336L9.35869 14.1006L9.14332 14.3094L9.17532 14.3424L9.39069 14.1336ZM16.304 18.343C14.9827 18.343 13.6205 17.6971 12.3974 16.8386C11.1774 15.9823 10.114 14.9273 9.39387 14.137L9.17213 14.339C9.89996 15.1377 10.9801 16.2103 12.2251 17.0842C13.467 17.9559 14.8913 18.643 16.304 18.643V18.343ZM16.454 19.263V18.493H16.154V19.263H16.454ZM16.157 18.4914L16.154 19.2624L16.454 19.2636L16.457 18.4926L16.157 18.4914ZM19.3208 16.8059C19.0393 17.244 18.8051 17.6048 18.389 17.871C17.9738 18.1367 17.3596 18.3179 16.3036 18.3421L16.3104 18.642C17.3944 18.6172 18.0707 18.4308 18.5507 18.1237C19.0299 17.8172 19.2957 17.4 19.5732 16.9681L19.3208 16.8059Z" fill="#3F85FB"/>
</svg>
