<svg width="57" height="42" viewBox="0 0 57 42" fill="none" xmlns="http://www.w3.org/2000/svg">
<mask id="mask0_99_4530" style="mask-type:alpha" maskUnits="userSpaceOnUse" x="0" y="0" width="57" height="42">
<path fill-rule="evenodd" clip-rule="evenodd" d="M0 0H57V41.8H0V0Z" fill="white"/>
</mask>
<g mask="url(#mask0_99_4530)">
<path fill-rule="evenodd" clip-rule="evenodd" d="M40.2333 36.5308C39.3003 38.0731 37.6309 39.1164 35.6957 39.1194C32.7685 39.1164 30.3899 36.7467 30.384 33.8298C30.384 33.4661 30.2476 33.1319 29.9925 32.8777C29.7403 32.624 29.4037 32.4852 29.0417 32.4852H15.9959V29.6182V29.6153V7.97032C15.9988 5.05043 18.3739 2.68898 21.307 2.68015H43.0211C41.7663 4.09008 41.0045 5.94016 41.0045 7.97032V27.8923C41.096 27.8864 41.1864 27.8629 41.2815 27.8629H43.6642V25.4838C43.6642 25.3861 43.6896 25.2855 43.6955 25.1849V12.1789V12.176V9.31199H45.5049H50.1523H55.6583C56.0168 9.31199 56.3534 9.17311 56.6055 8.91596C56.8636 8.66528 57 8.33104 57 7.97032C57 3.56989 53.4232 0.00858262 49.0161 0.00269811C49.0102 0.00269811 49.0073 -0.000244141 49.0014 -0.000244141H21.307C16.8888 0.00269811 13.3072 3.56989 13.3043 7.97032V29.6153C13.3043 29.6153 13.3072 29.6241 13.3072 29.6271V32.4852H1.34503C0.987761 32.4852 0.643486 32.6293 0.394286 32.8777C0.142723 33.1289 -0.000183105 33.4691 -0.000183105 33.8298C0.00276951 38.2302 3.58134 41.7968 7.99726 41.8003H35.6957C39.103 41.7968 42.0066 39.6631 43.1605 36.6696H41.2815C40.9171 36.6696 40.5699 36.6132 40.2333 36.5308Z" fill="#3F85FB"/>
</g>
<path fill-rule="evenodd" clip-rule="evenodd" d="M21.8949 11.4H34.1593C34.7081 11.4 35.15 10.9751 35.15 10.4503C35.15 9.92487 34.7081 9.5 34.1593 9.5H21.8949C21.3479 9.5 20.9 9.92487 20.9 10.4503C20.9 10.9751 21.3479 11.4 21.8949 11.4Z" fill="#3F85FB"/>
<path fill-rule="evenodd" clip-rule="evenodd" d="M21.8949 15.2H34.1593C34.7081 15.2 35.15 14.7674 35.15 14.2441C35.15 13.7208 34.7081 13.3 34.1593 13.3H21.8949C21.3455 13.3 20.9 13.7208 20.9 14.2441C20.9 14.7674 21.3455 15.2 21.8949 15.2Z" fill="#3F85FB"/>
<path fill-rule="evenodd" clip-rule="evenodd" d="M21.8946 19.95H34.1555C34.704 19.95 35.15 19.5264 35.15 19.0032C35.15 18.4765 34.704 18.05 34.1555 18.05H21.8946C21.3454 18.05 20.9 18.4765 20.9 19.0032C20.9 19.5264 21.3454 19.95 21.8946 19.95Z" fill="#3F85FB"/>
<mask id="mask1_99_4530" style="mask-type:alpha" maskUnits="userSpaceOnUse" x="38" y="22" width="19" height="19">
<path fill-rule="evenodd" clip-rule="evenodd" d="M38.95 22.8H57V40.85H38.95V22.8Z" fill="white"/>
</mask>
<g mask="url(#mask1_99_4530)">
<path fill-rule="evenodd" clip-rule="evenodd" d="M54.6184 29.4423H50.3569V25.1828C50.3569 23.8684 49.2931 22.8 47.9768 22.8C46.6565 22.8 45.5921 23.8684 45.5921 25.1828V29.4423H41.3341C40.0183 29.4423 38.95 30.5077 38.95 31.8222C38.95 33.1424 40.0183 34.205 41.3341 34.205H45.5921V38.4673C45.5921 39.7817 46.6565 40.85 47.9768 40.85C49.2931 40.85 50.3569 39.7817 50.3569 38.4673V34.205H54.6184C55.9313 34.205 57.0002 33.1424 57.0002 31.8222C57.0002 30.5077 55.9313 29.4423 54.6184 29.4423Z" fill="#3F85FB"/>
</g>
</svg>
