<svg width="24" height="24" viewBox="0 0 24 24" fill="none" xmlns="http://www.w3.org/2000/svg">
<path fill-rule="evenodd" clip-rule="evenodd" d="M21.8958 8.47122C21.6634 7.6548 21.1192 6.9625 20.3808 6.54372L14.2358 3.61621C12.8831 2.80823 11.1995 2.79389 9.83329 3.57871L3.6191 6.54372C3.59533 6.55539 3.57199 6.5679 3.5491 6.58122C2.57871 7.13607 1.98572 8.1737 2.00026 9.29142C2.01481 10.4091 2.6346 11.431 3.6191 11.9604L5.33327 12.7771V16.8604C5.33429 18.6863 6.52238 20.2995 8.26578 20.8421C9.47902 21.1931 10.737 21.3649 12 21.3521C13.2627 21.3663 14.5207 21.1958 15.7341 20.8463C17.4776 20.3036 18.6656 18.6905 18.6667 16.8646V12.7754L20.3333 11.9787V18.8521C20.3333 19.3123 20.7064 19.6854 21.1667 19.6854C21.6269 19.6854 22 19.3123 22 18.8521V8.85206C21.9973 8.71846 21.9615 8.58761 21.8958 8.47122ZM17 16.8646C17.0004 17.9568 16.2918 18.9228 15.25 19.2504C14.1935 19.5523 13.0987 19.6988 12 19.6854C10.9013 19.6988 9.80646 19.5523 8.74995 19.2504C7.7081 18.9228 6.99952 17.9568 6.99995 16.8646V13.5712L9.76412 14.8879C10.4461 15.2929 11.2251 15.5057 12.0183 15.5037C12.7733 15.5091 13.5156 15.3092 14.1658 14.9254L17 13.5712V16.8646ZM13.3816 13.4562L19.6667 10.4562C20.082 10.197 20.3341 9.74169 20.3333 9.25206C20.3271 8.73521 20.0444 8.26132 19.5925 8.01039L13.4475 5.08288C12.5847 4.55064 11.4991 4.53623 10.6225 5.04538L4.3766 8.02872C3.93209 8.28297 3.66036 8.75825 3.66677 9.2703C3.67317 9.78235 3.9567 10.2507 4.40744 10.4937L10.5566 13.4187C11.4191 13.9521 12.5053 13.9665 13.3816 13.4562Z" fill="#3F85FB"/>
</svg>
