<svg width="24" height="24" viewBox="0 0 24 24" fill="none" xmlns="http://www.w3.org/2000/svg">
<path fill-rule="evenodd" clip-rule="evenodd" d="M15.0769 4.4H18.7692C19.4492 4.4 19.9999 4.937 20 5.59997V6.8C20 7.46239 19.4492 7.99939 18.7698 8H5.22954C4.55077 7.99939 4 7.46239 4 6.8V5.6C4 4.937 4.55077 4.4 5.23077 4.4H8.92305V3.2C8.92305 2.537 9.47382 2 10.1538 2H13.8461C14.5261 2 15.0769 2.537 15.0769 3.2V4.4ZM10 4H14V3.5C14 3.22399 13.7013 3 13.3333 3H10.6667C10.2987 3 10 3.22401 10 3.5V4ZM5 19.4C5 20.8359 6.13972 22 7.54546 22H16.4546C17.8603 22 19 20.8359 19 19.4V9H5V19.4ZM15.5 11C15.224 11 15 11.288 15 11.6429V19.3571C15 19.712 15.224 20 15.5 20C15.776 20 16 19.712 16 19.3571V11.6429C16 11.288 15.776 11 15.5 11ZM12 11.6429C12 11.288 12.224 11 12.5 11C12.776 11 13 11.288 13 11.6429V19.3571C13 19.712 12.776 20 12.5 20C12.224 20 12 19.712 12 19.3571V11.6429ZM8.5 11C8.22399 11 8 11.288 8 11.6429V19.3571C8 19.712 8.22399 20 8.5 20C8.77601 20 9 19.712 9 19.3571V11.6429C9 11.288 8.77601 11 8.5 11Z" fill="#FF5757"/>
</svg>
