<svg width="20" height="20" viewBox="0 0 20 20" fill="none" xmlns="http://www.w3.org/2000/svg">
<path fill-rule="evenodd" clip-rule="evenodd" d="M9.99611 3C8.13989 2.99979 6.3597 3.73735 5.04751 5.05026C3.73533 6.36317 2.99876 8.14378 3 10C3 13.8679 6.129 17 9.99611 17C13.864 17 17 13.8679 17 10C17 6.13211 13.864 3 9.99611 3ZM10 15.6C8.51466 15.6004 7.09004 15.0105 6.03975 13.9603C4.98946 12.91 4.39959 11.4853 4.4 10C4.4 6.906 6.906 4.4 10 4.4C13.094 4.4 15.6 6.906 15.6 10C15.6 13.094 13.094 15.6 10 15.6ZM9.3 6.5H10.35V10.175L13.5 12.044L12.9711 12.905L9.3 10.7V6.5Z" fill="#B2BCC8"/>
</svg>
