<svg width="20" height="20" viewBox="0 0 20 20" fill="none" xmlns="http://www.w3.org/2000/svg">
<mask id="mask0_0_61" style="mask-type:alpha" maskUnits="userSpaceOnUse" x="2" y="3" width="17" height="15">
<path fill-rule="evenodd" clip-rule="evenodd" d="M2 3H18.563V17.472H2V3Z" fill="white"/>
</mask>
<g mask="url(#mask0_0_61)">
<path fill-rule="evenodd" clip-rule="evenodd" d="M11.1079 11.983L11.0249 12.026L11.1269 12.565L11.1489 12.59C11.3499 12.824 11.6959 12.986 12.0979 13.175C13.0899 13.641 14.3219 14.218 14.3709 16.206H6.19088C6.24088 14.218 7.47188 13.641 8.46488 13.174C8.89088 12.975 9.25788 12.802 9.45088 12.544L9.55888 12.035L9.47588 11.993C8.64888 11.573 8.11388 10.578 8.11388 9.457C8.11388 7.95 9.08588 6.724 10.2809 6.724C11.4769 6.724 12.4489 7.95 12.4489 9.457C12.4489 10.566 11.9229 11.558 11.1079 11.983ZM14.0319 9.525L13.9499 9.568L14.0499 10.108L14.0719 10.133C14.2729 10.366 14.6199 10.529 15.0209 10.717C16.0139 11.183 17.2449 11.761 17.2949 13.748H14.9079C14.2949 12.862 13.4039 12.394 12.8429 12.126C13.4069 11.391 13.7159 10.45 13.7159 9.457C13.7159 7.717 12.7389 6.172 11.3249 5.647C11.7119 4.792 12.4219 4.266 13.2049 4.266C14.3999 4.266 15.3729 5.492 15.3729 6.999C15.3729 8.108 14.8469 9.1 14.0319 9.525ZM5.54188 10.717C5.96788 10.517 6.33488 10.345 6.52788 10.086L6.63588 9.577L6.55188 9.535C5.72488 9.116 5.19088 8.12 5.19088 6.999C5.19088 5.492 6.16288 4.266 7.35788 4.266C8.14088 4.266 8.85188 4.792 9.23788 5.646C7.82288 6.172 6.84688 7.717 6.84688 9.457C6.84688 10.451 7.15488 11.392 7.71888 12.126C7.15788 12.394 6.26788 12.862 5.65488 13.748H3.26888C3.31788 11.761 4.54888 11.183 5.54188 10.717ZM18.5639 13.873C18.5639 11.121 16.7629 10.143 15.7669 9.669C16.3309 8.934 16.6399 7.993 16.6399 6.999C16.6399 4.794 15.0989 3 13.2049 3C12.0059 3 10.9059 3.723 10.2819 4.904C9.65788 3.723 8.55688 3 7.35788 3C5.46388 3 3.92388 4.794 3.92388 6.999C3.92388 7.993 4.23288 8.934 4.79588 9.669C3.79988 10.143 1.99988 11.12 1.99988 13.873V15.015H5.08188C4.97688 15.421 4.92288 15.863 4.92288 16.331V17.472H15.6399V16.331C15.6399 15.862 15.5869 15.421 15.4809 15.015H18.5639V13.873Z" fill="#B2BCC8"/>
</g>
</svg>
