<svg width="24" height="24" viewBox="0 0 24 24" fill="none" xmlns="http://www.w3.org/2000/svg">
<path fill-rule="evenodd" clip-rule="evenodd" d="M9 4C9 3.44772 9.44772 3 10 3H13C13.5523 3 14 3.44772 14 4V7C14 7.55228 13.5523 8 13 8H10C9.44772 8 9 7.55228 9 7V4ZM9 11C9 10.4477 9.44772 10 10 10H13C13.5523 10 14 10.4477 14 11V14C14 14.5523 13.5523 15 13 15H10C9.44772 15 9 14.5523 9 14V11ZM10 17C9.44772 17 9 17.4477 9 18V21C9 21.5523 9.44772 22 10 22H13C13.5523 22 14 21.5523 14 21V18C14 17.4477 13.5523 17 13 17H10Z" fill="#3F85FB"/>
</svg>
