<svg width="26" height="30" viewBox="0 0 26 30" fill="none" xmlns="http://www.w3.org/2000/svg">
<path fill-rule="evenodd" clip-rule="evenodd" d="M12.0965 14.4737V12.5476C11.1297 12.5858 10.1807 12.6234 9.22278 12.6613V14.7103C10.1848 14.6311 11.133 14.553 12.0965 14.4737Z" fill="black"/>
<path fill-rule="evenodd" clip-rule="evenodd" d="M13.093 14.473C14.0678 14.5552 15.0146 14.6351 15.97 14.7157V12.6601C15.0066 12.6229 14.0568 12.5863 13.093 12.5491V14.473Z" fill="black"/>
<path fill-rule="evenodd" clip-rule="evenodd" d="M8.22608 12.7085C6.96961 12.916 5.75367 13.0875 4.55065 13.3241C3.52359 13.5261 2.51044 13.8062 1.59261 14.3355C0.77539 14.8066 0.763645 15.2197 1.61062 15.6413C2.28083 15.9748 3.00801 16.1968 3.71816 16.4444C3.84598 16.489 4.03095 16.4526 4.16132 16.3925C4.663 16.1606 5.13611 15.858 5.65149 15.6669C6.48692 15.3575 7.347 15.1151 8.22608 14.835V12.7085Z" fill="black"/>
<path fill-rule="evenodd" clip-rule="evenodd" d="M16.9712 14.9124C18.1431 15.1172 19.2915 15.4057 20.2868 16.0229C21.0428 16.4915 21.7183 16.5181 22.4739 16.1499C22.8888 15.9477 23.3324 15.796 23.726 15.5599C24.3792 15.1685 24.3694 14.8112 23.7151 14.4078C23.4258 14.2295 23.1143 14.0776 22.7966 13.9556C20.9277 13.2379 18.9652 12.9716 16.9712 12.7622V14.9124Z" fill="black"/>
<path fill-rule="evenodd" clip-rule="evenodd" d="M8.23683 15.8992C7.24129 16.102 6.31719 16.3631 5.45593 16.8196C10.2218 17.6127 14.9783 17.6135 19.7382 16.8155C18.8613 16.3701 17.9383 16.0885 16.9679 15.9051C16.9573 16.0885 16.9479 16.2551 16.9387 16.4189H15.9807V15.6839C15.0126 15.6036 14.0578 15.5243 13.0652 15.4421V16.4281H12.1009V15.4482C11.1132 15.5343 10.166 15.6167 9.20026 15.7009V16.4222H8.23683V15.8992Z" fill="black"/>
<path fill-rule="evenodd" clip-rule="evenodd" d="M1.7627 18.1442L2.55956 17.1232C2.52537 17.1091 2.49142 17.0957 2.45779 17.0823L2.45762 17.0823C2.38253 17.0525 2.30903 17.0233 2.23796 16.9891C2.11367 16.9295 1.98746 16.8727 1.86121 16.816C1.56435 16.6826 1.26734 16.5491 0.995001 16.3769C-0.328796 15.5393 -0.338974 14.4073 1.00831 13.6003C1.64819 13.2168 2.3646 12.9328 3.07906 12.7081C4.62149 12.223 6.21972 11.9985 7.82597 11.8372C7.91348 11.8285 8.00064 11.8162 8.09152 11.8033C8.13541 11.7971 8.18017 11.7907 8.22626 11.7846V10.644L8.14614 10.6399C8.02839 10.6339 7.91246 10.628 7.78036 10.6215V0.000391482H9.67514V10.6268H9.22787V11.6944L11.0743 11.6205L12.0918 11.5798V10.6424L11.6523 10.6221V0H13.5483V10.616L13.1 10.643V11.5859C14.0486 11.6245 14.992 11.6626 15.9604 11.7018V10.6464L15.5162 10.6166V0.00176167H17.419V10.6238H16.9743V11.7852C17.1221 11.8027 17.2709 11.8198 17.4203 11.8369C17.7619 11.8762 18.1069 11.9158 18.451 11.9617C20.0514 12.1747 21.6443 12.4405 23.1413 13.0686C23.6898 13.2986 24.2299 13.6107 24.6826 13.9931C25.3775 14.5802 25.3794 15.3944 24.6849 15.9787C24.3493 16.261 23.9537 16.473 23.5589 16.6845C23.4114 16.7635 23.2641 16.8424 23.12 16.9249C23.0205 16.982 22.9104 17.0206 22.7958 17.0608C22.7421 17.0796 22.6873 17.0989 22.6322 17.1205L23.4302 18.1434L23.0324 18.5182C22.7583 18.7764 22.4913 19.0279 22.2239 19.2789C22.0771 19.4166 21.9298 19.5538 21.7826 19.691C21.5388 19.9182 21.295 20.1454 21.0532 20.3747C20.739 20.6724 20.7382 20.9255 21.0541 21.2236C21.6064 21.745 22.1606 22.2646 22.7215 22.7905L22.723 22.7919C22.9505 23.0052 23.1791 23.2195 23.4091 23.4355C23.3967 23.4539 23.3847 23.4721 23.3728 23.4901C23.3636 23.5041 23.3545 23.518 23.3456 23.5318C23.3046 23.5944 23.2654 23.6545 23.2228 23.7121C22.3862 24.8429 21.3401 25.7264 20.0803 26.3512C19.912 26.4348 19.85 26.526 19.8529 26.7151C19.8643 27.4434 19.8607 28.172 19.8571 28.9004L19.8568 28.9542C19.8535 29.5966 19.4589 29.9909 18.8194 29.9973C18.5371 30.0002 18.2547 30.001 17.9724 29.9971C17.3572 29.9887 16.9592 29.5865 16.9542 28.9654C16.9515 28.6473 16.9521 28.3291 16.9528 27.9993C16.9531 27.8493 16.9534 27.6969 16.9534 27.541C15.5023 27.8745 14.0599 28.0632 12.5956 28.0616C11.1383 28.0601 9.70156 27.8831 8.23996 27.5333L8.24011 27.9627V27.9641C8.24028 28.2744 8.24044 28.5753 8.23977 28.8763C8.2384 29.6213 7.86708 29.9959 7.12835 29.9977C7.0594 29.9979 6.99044 29.9984 6.92148 29.9988H6.92146C6.71809 30.0001 6.5147 30.0014 6.31152 29.9963C5.74896 29.9818 5.34358 29.5782 5.33791 29.0129C5.32988 28.2464 5.32949 27.4797 5.34006 26.7134C5.3426 26.5255 5.28232 26.4342 5.11202 26.3495C3.85341 25.7239 2.80541 24.8425 1.96979 23.7105C1.92997 23.6566 1.89236 23.6012 1.85038 23.5392L1.85033 23.5392C1.82979 23.5089 1.80821 23.4771 1.78482 23.4431L2.05127 23.1897C2.24927 23.0013 2.44476 22.8152 2.64138 22.6304C2.82939 22.4537 3.01793 22.2775 3.20647 22.1014C3.51905 21.8094 3.83161 21.5174 4.14173 21.2226C4.45453 20.9255 4.45374 20.6691 4.1386 20.3719C3.58985 19.8543 3.03905 19.3389 2.47504 18.8111L2.4749 18.811L2.47321 18.8094C2.23892 18.5901 2.00235 18.3688 1.7627 18.1442ZM3.12458 20.8157L1.34432 22.6015C0.853598 21.401 0.860448 20.2058 1.3406 19.0188L2.50875 20.1955L3.12458 20.8157ZM23.8052 19.0138L22.0492 20.7901L23.8292 22.5839C24.3403 21.6486 24.3446 19.9128 23.8052 19.0138Z" fill="#3F85FB"/>
<path fill-rule="evenodd" clip-rule="evenodd" d="M9.22277 14.7103L12.0964 14.4737V12.5476L9.22277 12.6613V14.7103ZM13.0929 14.4729V12.5489L13.9989 12.5839L13.9989 12.5839C14.6554 12.6093 15.3095 12.6345 15.9699 12.6599V14.7156L13.0929 14.4729ZM8.22608 14.8351V12.7086C7.84456 12.7715 7.46678 12.8312 7.09196 12.8904C6.23238 13.0261 5.38838 13.1594 4.55065 13.3242C3.52359 13.5262 2.51044 13.8061 1.59261 14.3354C0.77539 14.8068 0.763645 15.2198 1.61062 15.6412C2.15159 15.9104 2.72967 16.1071 3.30595 16.3031L3.30601 16.3031L3.30604 16.3032C3.44369 16.35 3.58124 16.3968 3.71816 16.4445C3.84598 16.489 4.03095 16.4527 4.16132 16.3925C4.35745 16.3018 4.54922 16.2004 4.74085 16.099C5.03939 15.9411 5.3376 15.7834 5.65149 15.667C6.2383 15.4496 6.83747 15.2652 7.44683 15.0777L7.44684 15.0777C7.70481 14.9983 7.96461 14.9184 8.22608 14.8351ZM16.9711 14.9125V12.7623C18.9652 12.9718 20.9277 13.238 22.7968 13.9557C23.1143 14.0777 23.4257 14.2296 23.715 14.4079C24.3694 14.8113 24.3792 15.1686 23.726 15.56C23.4789 15.7082 23.2122 15.8231 22.9452 15.9382L22.9452 15.9382C22.7868 16.0064 22.6283 16.0747 22.4738 16.15C21.7182 16.5182 21.0427 16.4916 20.2868 16.023C19.2915 15.4058 18.143 15.1173 16.9711 14.9125ZM8.23686 15.8993V16.4223H9.2003V15.701L12.1008 15.4485V16.4282H13.0652V15.4422L15.9808 15.6839V16.419H16.9385L16.9679 15.9051C17.9384 16.0885 18.8613 16.3702 19.7382 16.8155C14.9784 17.6138 10.2219 17.6128 5.45597 16.8196C6.31723 16.3632 7.24132 16.102 8.23686 15.8993Z" fill="#D9F2FF"/>
</svg>
