<svg width="20" height="20" viewBox="0 0 20 20" fill="none" xmlns="http://www.w3.org/2000/svg">
<path fill-rule="evenodd" clip-rule="evenodd" d="M10.1521 9.7354C9.44813 10.4394 8.49302 10.8344 7.49746 10.8333C5.45829 10.8308 3.75246 9.12492 3.74996 7.08576C3.74885 6.09019 4.14385 5.13509 4.84782 4.43112C5.55179 3.72715 6.5069 3.33215 7.50246 3.33326C9.54163 3.33576 11.2475 5.04159 11.25 7.08076C11.2511 8.07632 10.8561 9.03143 10.1521 9.7354ZM18.1508 10.3358L17.1633 9.34909C16.9199 9.10714 16.5267 9.10714 16.2833 9.34909L15.195 10.4374L17.065 12.3041L18.1533 11.2158C18.3932 10.9711 18.3921 10.5791 18.1508 10.3358ZM11.0125 14.6166L10.8358 16.2058C10.8215 16.3311 10.8652 16.4562 10.9544 16.5454C11.0437 16.6347 11.1687 16.6784 11.2941 16.6641L12.88 16.4866L16.4716 12.8949L14.6041 11.0283L11.0125 14.6166ZM7.38246 4.58576C8.0855 4.55312 8.76977 4.81813 9.26743 5.31579C9.76509 5.81345 10.0301 6.49772 9.99746 7.20076C9.93311 8.48792 8.90381 9.51686 7.61663 9.58076C6.91373 9.61316 6.22968 9.34804 5.73221 8.85041C5.23474 8.35278 4.96984 7.66865 5.00246 6.96576C5.06677 5.6789 6.0956 4.65007 7.38246 4.58576ZM5.67074 12.6163C5.46049 12.5504 5.29921 12.4999 5.16663 12.4999C3.92663 12.4999 2.91663 13.5099 2.91663 14.7499V15.4166H9.66663C9.65503 15.519 9.64424 15.6098 9.63454 15.6914C9.57598 16.1842 9.55749 16.3398 9.64329 16.6666H2.91663C2.22627 16.6666 1.66663 16.1069 1.66663 15.4166V14.7499C1.66709 12.8168 3.23433 11.2499 5.16746 11.2499C5.49657 11.2499 5.74994 11.3302 6.03431 11.4202C6.398 11.5354 6.8124 11.6666 7.50079 11.6666C8.18969 11.6666 8.60498 11.5352 8.96911 11.42C9.25335 11.33 9.50642 11.2499 9.83413 11.2499C10.5853 11.2514 11.3156 11.4971 11.915 11.9499L11.0191 12.8458C10.6725 12.6299 10.2691 12.4999 9.83329 12.4999C9.70031 12.4999 9.54054 12.5503 9.33209 12.616C8.94095 12.7393 8.37844 12.9166 7.49996 12.9166C6.62975 12.9166 6.0644 12.7395 5.67074 12.6163Z" fill="#B2BCC8"/>
</svg>
