<svg width="20" height="20" viewBox="0 0 20 20" fill="none" xmlns="http://www.w3.org/2000/svg">
<mask id="mask0_0_32" style="mask-type:alpha" maskUnits="userSpaceOnUse" x="4" y="10" width="12" height="9">
<path fill-rule="evenodd" clip-rule="evenodd" d="M4.16663 10.481H15.8991V18.1435H4.16663V10.481Z" fill="white"/>
</mask>
<g mask="url(#mask0_0_32)">
<path fill-rule="evenodd" clip-rule="evenodd" d="M4.16663 15.6393C4.16663 12.7951 6.79829 10.481 10.0316 10.4818V10.481C13.2666 10.481 15.8975 12.7951 15.8975 15.6393C15.9141 16.0601 15.7608 16.4485 15.4383 16.7835C14.2258 18.0443 11.0441 18.1426 10.0975 18.1426C8.78079 18.1426 7.43579 17.9743 6.30829 17.6685C4.44246 17.0385 4.16663 16.1268 4.16663 15.6393ZM10.0975 16.7901C13.1125 16.7901 14.6891 16.041 14.6891 15.6401C14.6275 13.5451 12.5666 11.8351 10.0975 11.8351C7.56496 11.8351 5.50579 13.5418 5.50579 15.6401C5.50579 16.041 7.08329 16.7901 10.0975 16.7901Z" fill="#B2BCC8"/>
</g>
<mask id="mask1_0_32" style="mask-type:alpha" maskUnits="userSpaceOnUse" x="6" y="2" width="8" height="9">
<path fill-rule="evenodd" clip-rule="evenodd" d="M6.32251 2.64673H13.9375V10.4417H6.32251V2.64673Z" fill="white"/>
</mask>
<g mask="url(#mask1_0_32)">
<path fill-rule="evenodd" clip-rule="evenodd" d="M13.9375 6.5434C13.9375 8.69173 12.215 10.4417 10.0967 10.4417H10.0975C7.98084 10.4417 6.32251 8.7284 6.32251 6.5434C6.32251 4.3584 7.98084 2.64673 10.0975 2.64673C12.215 2.64673 13.9375 4.39506 13.9375 6.5434ZM10.0967 4.06673C8.75501 4.06673 7.66334 5.17756 7.66334 6.5434C7.66334 7.86423 8.80084 9.0209 10.0967 9.0209C11.4533 9.0209 12.5967 7.88673 12.5967 6.5434C12.5967 5.20173 11.4533 4.06673 10.0967 4.06673Z" fill="#B2BCC8"/>
</g>
</svg>
