<svg width="24" height="24" viewBox="0 0 24 24" fill="none" xmlns="http://www.w3.org/2000/svg">
<path fill-rule="evenodd" clip-rule="evenodd" d="M14.6875 4.37501H18.25C18.9061 4.37501 19.4375 4.90641 19.4375 5.56248V6.75001C19.4375 7.4055 18.9061 7.93691 18.2506 7.93752H5.18632C4.53141 7.93691 4 7.4055 4 6.75001V5.56251C4 4.90641 4.53141 4.37501 5.1875 4.37501H8.74999V3.1875C8.74999 2.53141 9.2814 2 9.93749 2H13.5C14.1561 2 14.6875 2.53141 14.6875 3.1875V4.37501ZM9.93749 4.37501H13.5V3.78124C13.5 3.45347 13.234 3.18748 12.9062 3.18748H10.5312C10.2035 3.18748 9.93749 3.4535 9.93749 3.78124V4.37501ZM5.18748 18.625C5.18748 19.9366 6.25088 21 7.56248 21H15.875C17.1866 21 18.25 19.9366 18.25 18.625V9.12499H5.18748V18.625ZM14.6875 10.3125C14.3598 10.3125 14.0938 10.5785 14.0938 10.9063V18.0313C14.0938 18.359 14.3598 18.625 14.6875 18.625C15.0152 18.625 15.2812 18.359 15.2812 18.0313V10.9063C15.2812 10.5785 15.0152 10.3125 14.6875 10.3125ZM11.125 10.9063C11.125 10.5785 11.391 10.3125 11.7188 10.3125C12.0465 10.3125 12.3125 10.5785 12.3125 10.9063V18.0313C12.3125 18.359 12.0465 18.625 11.7188 18.625C11.391 18.625 11.125 18.359 11.125 18.0313V10.9063ZM8.74999 10.3125C8.42222 10.3125 8.15622 10.5785 8.15622 10.9063V18.0313C8.15622 18.359 8.42222 18.625 8.74999 18.625C9.07776 18.625 9.34375 18.359 9.34375 18.0313V10.9063C9.34375 10.5785 9.07776 10.3125 8.74999 10.3125Z" fill="#3F85FB"/>
</svg>
