<svg width="20" height="20" viewBox="0 0 20 20" fill="none" xmlns="http://www.w3.org/2000/svg">
<g clip-path="url(#clip0_15_2472)">
<mask id="mask0_15_2472" style="mask-type:alpha" maskUnits="userSpaceOnUse" x="4" y="2" width="13" height="16">
<path d="M11.6666 2.5C11.7019 2.5 11.7366 2.50268 11.7705 2.50786L11.6666 2.5C11.7105 2.5 11.754 2.50423 11.7964 2.51247C11.8235 2.51758 11.8495 2.52425 11.8748 2.53237C11.8801 2.53425 11.8855 2.53606 11.8909 2.53793C11.9177 2.54707 11.9435 2.55795 11.9685 2.57031C11.9771 2.57469 11.9858 2.57925 11.9945 2.58401C12.0154 2.59539 12.0354 2.60774 12.0546 2.62106C12.0672 2.62983 12.0797 2.63911 12.0919 2.64884C12.1049 2.65922 12.1176 2.67012 12.1298 2.68148C12.1362 2.68736 12.1425 2.69346 12.1487 2.6997L16.2397 6.79061L16.2569 6.8085C16.27 6.82261 16.2826 6.83728 16.2945 6.85246L16.2397 6.79061C16.2689 6.81984 16.2952 6.85144 16.3184 6.88497C16.3305 6.90243 16.342 6.92068 16.3525 6.93949C16.3585 6.9504 16.3642 6.96124 16.3696 6.97222C16.3787 6.99037 16.387 7.00936 16.3944 7.02877C16.3995 7.04265 16.4043 7.0565 16.4087 7.07051C16.4287 7.13448 16.4394 7.20236 16.4394 7.27273V15.4545C16.4394 16.5842 15.5236 17.5 14.3939 17.5H6.21208C5.08241 17.5 4.16663 16.5842 4.16663 15.4545V4.54545C4.16663 3.41578 5.08241 2.5 6.21208 2.5H11.6666ZM10.9846 3.863L6.21208 3.86364C5.83552 3.86364 5.53026 4.1689 5.53026 4.54545V15.4545C5.53026 15.8311 5.83552 16.1364 6.21208 16.1364H14.3939C14.7705 16.1364 15.0757 15.8311 15.0757 15.4545L15.0756 7.954L11.6666 7.95455C11.3243 7.95455 11.0409 7.70226 10.9922 7.37348L10.9848 7.27273L10.9846 3.863ZM12.3484 11.3636C12.725 11.3636 13.0303 11.6689 13.0303 12.0455C13.0303 12.422 12.725 12.7273 12.3484 12.7273H8.25754C7.88098 12.7273 7.57572 12.422 7.57572 12.0455C7.57572 11.6689 7.88098 11.3636 8.25754 11.3636H12.3484ZM12.3476 4.827L12.3484 6.59091L14.1106 6.59L12.3476 4.827Z" fill="white"/>
</mask>
<g mask="url(#mask0_15_2472)">
<path d="M11.6666 2.5C11.7019 2.5 11.7366 2.50268 11.7705 2.50786L11.6666 2.5C11.7105 2.5 11.754 2.50423 11.7964 2.51247C11.8235 2.51758 11.8495 2.52425 11.8748 2.53237C11.8801 2.53425 11.8855 2.53606 11.8909 2.53793C11.9177 2.54707 11.9435 2.55795 11.9685 2.57031C11.9771 2.57469 11.9858 2.57925 11.9945 2.58401C12.0154 2.59539 12.0354 2.60774 12.0546 2.62106C12.0672 2.62983 12.0797 2.63911 12.0919 2.64884C12.1049 2.65922 12.1176 2.67012 12.1298 2.68148C12.1362 2.68736 12.1425 2.69346 12.1487 2.6997L16.2397 6.79061L16.2569 6.8085C16.27 6.82261 16.2826 6.83728 16.2945 6.85246L16.2397 6.79061C16.2689 6.81984 16.2952 6.85144 16.3184 6.88497C16.3305 6.90243 16.342 6.92068 16.3525 6.93949C16.3585 6.9504 16.3642 6.96124 16.3696 6.97222C16.3787 6.99037 16.387 7.00936 16.3944 7.02877C16.3995 7.04265 16.4043 7.0565 16.4087 7.07051C16.4287 7.13448 16.4394 7.20236 16.4394 7.27273V15.4545C16.4394 16.5842 15.5236 17.5 14.3939 17.5H6.21208C5.08241 17.5 4.16663 16.5842 4.16663 15.4545V4.54545C4.16663 3.41578 5.08241 2.5 6.21208 2.5H11.6666ZM10.9846 3.863L6.21208 3.86364C5.83552 3.86364 5.53026 4.1689 5.53026 4.54545V15.4545C5.53026 15.8311 5.83552 16.1364 6.21208 16.1364H14.3939C14.7705 16.1364 15.0757 15.8311 15.0757 15.4545L15.0756 7.954L11.6666 7.95455C11.3243 7.95455 11.0409 7.70226 10.9922 7.37348L10.9848 7.27273L10.9846 3.863ZM12.3484 11.3636C12.725 11.3636 13.0303 11.6689 13.0303 12.0455C13.0303 12.422 12.725 12.7273 12.3484 12.7273H8.25754C7.88098 12.7273 7.57572 12.422 7.57572 12.0455C7.57572 11.6689 7.88098 11.3636 8.25754 11.3636H12.3484ZM12.3476 4.827L12.3484 6.59091L14.1106 6.59L12.3476 4.827Z" fill="#B2BCC8"/>
</g>
</g>
<defs>
<clipPath id="clip0_15_2472">
<rect width="20" height="20" fill="white"/>
</clipPath>
</defs>
</svg>
